<svg width="29" height="28" viewBox="0 0 29 28" fill="none" xmlns="http://www.w3.org/2000/svg">
<path d="M19.9249 10.7515L15.6591 14.7029L15.6591 3.2C15.6591 2.53726 15.0791 2 14.3636 2C13.6482 2 13.0682 2.53726 13.0682 3.2V14.7029L8.80239 10.7515C8.29648 10.2828 7.47625 10.2828 6.97034 10.7515C6.46443 11.2201 6.46443 11.9799 6.97034 12.4485L13.4476 18.4485C13.9535 18.9172 14.7738 18.9172 15.2797 18.4485L21.7569 12.4485C22.2628 11.9799 22.2628 11.2201 21.7569 10.7515C21.251 10.2828 20.4308 10.2828 19.9249 10.7515Z" fill="#868686"/>
<path d="M6.59091 18.8C6.59091 18.1373 6.01091 17.6 5.29545 17.6C4.57999 17.6 4 18.1373 4 18.8V22.4C4 24.3882 5.73998 26 7.88636 26H20.8409C22.9873 26 24.7273 24.3882 24.7273 22.4V18.8C24.7273 18.1373 24.1473 17.6 23.4318 17.6C22.7164 17.6 22.1364 18.1373 22.1364 18.8V22.4C22.1364 23.0627 21.5564 23.6 20.8409 23.6H7.88636C7.1709 23.6 6.59091 23.0627 6.59091 22.4V18.8Z" fill="#868686"/>
</svg>
