<svg width="184" height="162" viewBox="0 0 184 162" fill="none" xmlns="http://www.w3.org/2000/svg">
<g filter="url(#filter0_d_7753_5420)">
<path d="M48.2821 153.877V147.225H50.2218C50.8838 147.225 51.3935 147.378 51.751 147.676C52.1118 147.978 52.2905 148.406 52.2905 148.96C52.2905 149.301 52.2111 149.586 52.0489 149.815C51.8867 150.044 51.6417 150.22 51.3074 150.342C51.7907 150.455 52.1647 150.664 52.4295 150.966C52.6943 151.268 52.8267 151.632 52.8267 152.063C52.8267 152.614 52.6248 153.055 52.221 153.383C51.8172 153.712 51.271 153.874 50.5826 153.874H48.2821V153.877ZM49.2222 150.077H49.861C50.3442 150.077 50.705 149.991 50.94 149.815C51.175 149.643 51.2909 149.374 51.2909 149.016C51.2909 148.691 51.1982 148.452 51.0129 148.303C50.8275 148.154 50.5329 148.081 50.1291 148.081H49.2222V150.077ZM49.2222 153.008H50.4833C50.9466 153.008 51.2843 152.926 51.4961 152.763C51.7079 152.601 51.8172 152.345 51.8172 151.994C51.8172 151.642 51.698 151.367 51.4597 151.198C51.2214 151.029 50.844 150.943 50.331 150.943H49.2222V153.008Z" fill="white"/>
<path d="M53.8693 147.225H54.8127V151.042C54.8127 151.467 54.8358 151.768 54.8822 151.944C54.9285 152.123 55.0047 152.276 55.1139 152.405C55.3092 152.637 55.5409 152.81 55.8123 152.922C56.0837 153.035 56.3882 153.095 56.7291 153.095C57.3051 153.095 57.7685 152.945 58.1193 152.647C58.4702 152.349 58.6456 151.957 58.6456 151.467V147.219H59.5889V151.493C59.5889 152.236 59.3241 152.836 58.7945 153.297C58.2683 153.758 57.5765 153.99 56.7258 153.99C56.2227 153.99 55.7693 153.901 55.3621 153.721C54.9583 153.542 54.6141 153.28 54.336 152.932C54.1639 152.727 54.0448 152.498 53.9719 152.242C53.9024 151.99 53.866 151.599 53.866 151.072V147.215L53.8693 147.225Z" fill="white"/>
<path d="M61.0056 153.877V147.225H61.9556V153.877H61.0056Z" fill="white"/>
<path d="M63.4351 153.877V147.225H64.3751V153.022H67.5361V153.877H63.4351Z" fill="white"/>
<path d="M70.7534 147.225C71.2433 147.225 71.6636 147.272 72.0178 147.365C72.372 147.457 72.693 147.603 72.9876 147.802C73.4378 148.107 73.7853 148.499 74.0303 148.976C74.2752 149.454 74.3977 149.978 74.3977 150.551C74.3977 151.125 74.2752 151.652 74.027 152.133C73.782 152.614 73.4345 153.005 72.9876 153.307C72.6997 153.506 72.3786 153.652 72.0178 153.745C71.6603 153.838 71.24 153.884 70.7501 153.884H68.3107V147.232H70.7501L70.7534 147.225ZM70.7534 148.134H69.254V152.975H70.7534C71.571 152.975 72.2164 152.76 72.6831 152.329C73.1531 151.898 73.3848 151.307 73.3848 150.558C73.3848 149.808 73.1498 149.215 72.6831 148.784C72.2164 148.349 71.571 148.134 70.7534 148.134Z" fill="white"/>
<path d="M79.5579 153.877V150.548L76.996 147.225H78.1214L80.0577 149.749L82.0404 147.225H83.1856L80.5244 150.598V153.877H79.5579Z" fill="white"/>
<path d="M82.9274 150.528C82.9274 150.084 83.0168 149.653 83.1988 149.235C83.3809 148.817 83.6357 148.446 83.9667 148.127C84.3044 147.802 84.6883 147.55 85.1153 147.381C85.5423 147.209 85.9924 147.126 86.4624 147.126C86.9325 147.126 87.3992 147.212 87.8328 147.384C88.2664 147.557 88.6437 147.806 88.9747 148.127C89.3189 148.462 89.5804 148.837 89.7525 149.251C89.9247 149.663 90.014 150.11 90.014 150.591C90.014 151.045 89.9247 151.48 89.7459 151.894C89.5672 152.312 89.3123 152.677 88.9846 152.995C88.6404 153.324 88.2531 153.576 87.8295 153.745C87.4025 153.914 86.949 154 86.4658 154C85.9825 154 85.5423 153.914 85.112 153.738C84.6784 153.562 84.2977 153.317 83.9701 152.995C83.6291 152.66 83.3709 152.286 83.1955 151.868C83.0201 151.45 82.9307 151.002 82.9307 150.528H82.9274ZM83.937 150.561C83.937 150.899 83.9998 151.224 84.1256 151.533C84.2514 151.841 84.4334 152.113 84.6718 152.352C84.9035 152.591 85.1749 152.773 85.486 152.902C85.7971 153.032 86.1215 153.095 86.4624 153.095C86.8034 153.095 87.1377 153.032 87.4422 152.906C87.7467 152.78 88.0214 152.594 88.2598 152.352C88.4981 152.113 88.6801 151.841 88.8092 151.533C88.9383 151.224 89.0012 150.903 89.0012 150.561C89.0012 150.22 88.9383 149.901 88.8125 149.6C88.6867 149.298 88.4981 149.019 88.2531 148.771C88.0148 148.525 87.7434 148.339 87.4356 148.213C87.1277 148.084 86.8034 148.021 86.4624 148.021C86.1215 148.021 85.8137 148.087 85.5059 148.217C85.198 148.346 84.92 148.532 84.6718 148.774C84.4334 149.006 84.2514 149.278 84.1256 149.586C83.9998 149.898 83.937 150.223 83.937 150.565V150.561Z" fill="white"/>
<path d="M91.0302 147.225H91.9735V151.042C91.9735 151.467 91.9967 151.768 92.043 151.944C92.0894 152.123 92.1655 152.276 92.2747 152.405C92.47 152.637 92.7017 152.81 92.9731 152.922C93.2446 153.035 93.5491 153.095 93.89 153.095C94.4659 153.095 94.9293 152.945 95.2802 152.647C95.631 152.349 95.8065 151.957 95.8065 151.467V147.219H96.7498V151.493C96.7498 152.236 96.485 152.836 95.9554 153.297C95.4291 153.758 94.7373 153.99 93.8867 153.99C93.3836 153.99 92.9301 153.901 92.523 153.721C92.1192 153.542 91.7749 153.28 91.4969 152.932C91.3248 152.727 91.2056 152.498 91.1328 152.242C91.0633 151.99 91.0269 151.599 91.0269 151.072V147.215L91.0302 147.225Z" fill="white"/>
<path d="M98.1267 153.877V147.225H100.073C100.745 147.225 101.261 147.384 101.625 147.699C101.989 148.014 102.171 148.465 102.171 149.046C102.171 149.484 102.072 149.835 101.874 150.1C101.675 150.366 101.357 150.565 100.93 150.701C101.039 150.76 101.145 150.84 101.245 150.939C101.344 151.039 101.47 151.208 101.625 151.44L103.241 153.874H102.092L100.953 152.13C100.613 151.602 100.338 151.268 100.126 151.122C99.9141 150.976 99.6659 150.903 99.3746 150.903H99.0899V153.874H98.1367L98.1267 153.877ZM99.08 150.107H99.8678C100.311 150.107 100.642 150.021 100.861 149.852C101.079 149.679 101.192 149.417 101.192 149.066C101.192 148.714 101.089 148.442 100.877 148.28C100.669 148.117 100.331 148.034 99.8678 148.034H99.08V150.107Z" fill="white"/>
<path d="M108.52 147.225C109.01 147.225 109.43 147.272 109.784 147.365C110.139 147.457 110.46 147.603 110.754 147.802C111.204 148.107 111.552 148.499 111.797 148.976C112.042 149.454 112.164 149.978 112.164 150.551C112.164 151.125 112.042 151.652 111.794 152.133C111.549 152.614 111.201 153.005 110.754 153.307C110.466 153.506 110.145 153.652 109.784 153.745C109.427 153.838 109.007 153.884 108.517 153.884H106.077V147.232H108.517L108.52 147.225ZM108.52 148.134H107.021V152.975H108.52C109.338 152.975 109.983 152.76 110.45 152.329C110.92 151.898 111.151 151.307 111.151 150.558C111.151 149.808 110.916 149.215 110.45 148.784C109.983 148.349 109.338 148.134 108.52 148.134Z" fill="white"/>
<path d="M113.27 153.877V147.225H115.216C115.888 147.225 116.404 147.384 116.768 147.699C117.132 148.014 117.315 148.465 117.315 149.046C117.315 149.484 117.215 149.835 117.017 150.1C116.818 150.366 116.5 150.565 116.073 150.701C116.183 150.76 116.288 150.84 116.388 150.939C116.487 151.039 116.613 151.208 116.768 151.44L118.384 153.874H117.235L116.096 152.13C115.756 151.602 115.481 151.268 115.269 151.122C115.057 150.976 114.809 150.903 114.518 150.903H114.233V153.874H113.28L113.27 153.877ZM114.223 150.107H115.011C115.454 150.107 115.785 150.021 116.004 149.852C116.222 149.679 116.335 149.417 116.335 149.066C116.335 148.714 116.232 148.442 116.02 148.28C115.812 148.117 115.474 148.034 115.011 148.034H114.223V150.107Z" fill="white"/>
<path d="M118.774 153.877V147.225H122.766V148.071H119.714V150.087H122.68V150.946H119.714V153.018H122.865V153.874H118.774V153.877Z" fill="white"/>
<path d="M123.137 153.877L126.013 147.225H126.705L129.621 153.877H128.638L127.784 151.918H124.957L124.113 153.877H123.137ZM125.325 151.062H127.393L126.344 148.664L125.325 151.062Z" fill="white"/>
<path d="M130.117 153.877V147.225H130.945L133.331 150.021L135.724 147.225H136.552V153.877H135.632V148.684L133.335 151.367L131.044 148.684V153.877H130.117Z" fill="white"/>
<path d="M23.6693 137.506C22.6763 138.073 21.637 138.501 20.5513 138.792C19.4657 139.084 18.3436 139.23 17.1917 139.23C15.8578 139.23 14.6431 139.028 13.5409 138.623C12.4386 138.219 11.4655 137.615 10.6149 136.816C9.76752 136.017 9.11876 135.069 8.6653 133.978C8.44684 133.427 8.28135 132.863 8.16881 132.286C8.05627 131.709 8 131.099 8 130.459C8 127.823 8.87714 125.697 10.6347 124.082C12.3923 122.467 14.7093 121.662 17.5922 121.662C18.6415 121.662 19.6577 121.774 20.6374 122.003C21.6172 122.229 22.5803 122.577 23.527 123.048V127.027C22.5969 126.42 21.6536 125.966 20.6937 125.667C19.7338 125.369 18.7938 125.22 17.8736 125.22C16.1623 125.22 14.8152 125.684 13.8354 126.616C12.8557 127.548 12.3625 128.828 12.3625 130.463C12.3625 132.097 12.8325 133.314 13.7659 134.259C14.7027 135.208 15.9637 135.679 17.5459 135.679C18.5786 135.679 19.6014 135.5 20.6109 135.138C21.6205 134.78 22.6399 134.246 23.6759 133.543V137.509L23.6693 137.506Z" fill="white"/>
<path d="M26.175 138.928V121.953H30.415V128.761H37.9584V121.953H42.1984V138.928H37.9584V132.048H30.415V138.928H26.175Z" fill="white"/>
<path d="M45.515 138.928V121.953H56.8516V125.084H49.7551V128.543H56.5372V131.696H49.7551V135.748H57.0568V138.928H45.515Z" fill="white"/>
<path d="M59.7578 138.928V121.953H63.5013L68.9396 128.785L74.401 121.953H78.1445V138.928H73.9773V128.42L68.9396 134.631L63.9481 128.42V138.928H59.7578Z" fill="white"/>
<path d="M79.3063 138.928L86.6941 121.953H91.5863L98.1863 138.928H93.6947L92.4833 135.629H85.1815L83.8244 138.928H79.3063ZM86.4029 132.717H91.4042L89.031 126.264L86.4029 132.717Z" fill="white"/>
<path d="M106.117 138.928V121.953H117.076V125.084H110.354V128.761H116.662V131.951H110.354V138.928H106.114H106.117Z" fill="white"/>
<path d="M118.821 130.459C118.821 129.189 119.042 128.019 119.486 126.947C119.929 125.876 120.591 124.925 121.472 124.089C122.303 123.306 123.272 122.703 124.378 122.282C124.904 122.096 125.477 121.95 126.106 121.844C126.731 121.738 127.367 121.685 128.012 121.685C128.691 121.685 129.33 121.735 129.932 121.831C130.534 121.927 131.114 122.083 131.67 122.292C132.759 122.68 133.735 123.283 134.596 124.106C135.456 124.928 136.112 125.876 136.565 126.957C137.019 128.038 137.244 129.202 137.244 130.456C137.244 131.709 137.022 132.893 136.578 133.961C136.135 135.029 135.48 135.964 134.609 136.77C133.742 137.576 132.755 138.186 131.653 138.6C130.551 139.018 129.34 139.227 128.016 139.227C126.692 139.227 125.477 139.025 124.395 138.62C123.312 138.215 122.342 137.609 121.482 136.793C120.621 135.98 119.963 135.032 119.506 133.948C119.049 132.863 118.821 131.699 118.821 130.453V130.459ZM123.18 130.459C123.18 131.965 123.633 133.205 124.543 134.183C125.45 135.161 126.609 135.652 128.012 135.652C129.416 135.652 130.564 135.165 131.481 134.19C132.398 133.215 132.855 131.971 132.855 130.459C132.855 128.947 132.401 127.677 131.491 126.705C130.584 125.73 129.422 125.243 128.009 125.243C126.596 125.243 125.457 125.734 124.547 126.712C123.633 127.69 123.176 128.94 123.176 130.463L123.18 130.459Z" fill="white"/>
<path d="M137.568 138.928L144.956 121.953H149.848L156.448 138.928H151.956L150.745 135.629H143.443L142.086 138.928H137.568ZM144.665 132.717H149.666L147.293 126.264L144.665 132.717Z" fill="white"/>
<path d="M157.613 138.928V121.953H161.357L166.795 128.785L172.256 121.953H176V138.928H171.833V128.42L166.795 134.631L161.804 128.42V138.928H157.613Z" fill="white"/>
<path d="M107.457 84.8665C107.457 84.8665 110.009 81.0232 106.819 77.5413C106.819 77.5413 108.083 80.4727 107.457 84.8665Z" fill="white"/>
<path d="M109.894 90.2187C109.894 90.2187 112.916 89.2106 117.228 90.2187C117.228 90.2187 113.631 87.3403 109.894 90.2187Z" fill="white"/>
<path d="M92.4171 8C64.0309 8 41.0168 31.0467 41.0168 59.492C41.0168 87.9372 64.0309 110.984 92.4137 110.984C120.797 110.984 143.811 87.9273 143.811 59.492C143.811 31.0566 120.8 8 92.4171 8ZM94.0058 100.034H83.5298V44.3607C83.5298 39.947 83.7152 36.7404 84.0793 34.7541C84.4467 32.7644 85.0921 31.0334 86.009 29.5611C87.4819 27.1669 89.5109 25.3066 92.1026 23.9835C94.691 22.657 97.5905 21.9905 100.785 21.9905C101.778 21.9905 102.906 22.09 104.177 22.2691C105.445 22.4514 107.031 22.7665 108.944 23.2075V32.1576C107.51 31.8625 106.269 31.637 105.223 31.4944C104.177 31.3518 103.267 31.2755 102.493 31.2755C99.4077 31.2755 97.2198 32.1244 95.9322 33.8488C94.648 35.5566 94.0058 38.5477 94.0058 42.8254V49.0065H107.438V57.8439H94.0058V100.041V100.034ZM100.619 100.101C109.533 83.7457 124.603 73.8008 124.603 73.8008C109.851 81.2885 102.019 92.8119 98.8483 98.5288C98.13 95.342 97.4714 87.9439 103.853 80.1345C107.226 76.0093 110.926 73.6848 114.362 72.4047C114.369 73.2371 114.236 75.9828 112.532 79.2624C112.532 79.2624 116.067 76.5863 114.441 72.3815C121.336 69.8514 127.165 71.5492 127.165 71.5492C126.03 96.3733 105.938 99.6662 100.616 100.104L100.619 100.101Z" fill="white"/>
<path d="M115.507 83.7358C115.507 83.7358 118.523 82.7277 122.839 83.7358C122.839 83.7358 119.241 80.8541 115.507 83.7358Z" fill="white"/>
</g>
<defs>
<filter id="filter0_d_7753_5420" x="0" y="0" width="184" height="162" filterUnits="userSpaceOnUse" color-interpolation-filters="sRGB">
<feFlood flood-opacity="0" result="BackgroundImageFix"/>
<feColorMatrix in="SourceAlpha" type="matrix" values="0 0 0 0 0 0 0 0 0 0 0 0 0 0 0 0 0 0 127 0" result="hardAlpha"/>
<feOffset/>
<feGaussianBlur stdDeviation="4"/>
<feComposite in2="hardAlpha" operator="out"/>
<feColorMatrix type="matrix" values="0 0 0 0 0 0 0 0 0 0 0 0 0 0 0 0 0 0 0.5 0"/>
<feBlend mode="normal" in2="BackgroundImageFix" result="effect1_dropShadow_7753_5420"/>
<feBlend mode="normal" in="SourceGraphic" in2="effect1_dropShadow_7753_5420" result="shape"/>
</filter>
</defs>
</svg>
