<svg width="33" height="26" viewBox="0 0 33 26" fill="none" xmlns="http://www.w3.org/2000/svg">
<path d="M7.55 2.19995H26.45C28.8762 2.19995 30.8589 4.09898 30.9929 6.49176L31 6.74995V20.05C31 22.4762 29.1009 24.4588 26.7082 24.5928L26.45 24.6H7.55C5.12376 24.6 3.14105 22.7009 3.0072 20.3081L3 20.05V6.74995C3 4.32371 4.89903 2.341 7.29181 2.20715L7.55 2.19995ZM28.9 9.72215L17.489 15.7291C17.2267 15.8672 16.9203 15.8869 16.6455 15.7884L16.511 15.7291L5.1 9.72355V20.05C5.1 21.3354 6.08995 22.3896 7.34906 22.4918L7.55 22.5H26.45C27.7355 22.5 28.7897 21.51 28.8919 20.2509L28.9 20.05V9.72215ZM26.45 4.29995H7.55C6.26456 4.29995 5.21033 5.28991 5.10812 6.54901L5.1 6.74995V7.35055L17 13.6135L28.9 7.34915V6.74995C28.9 5.46451 27.9101 4.41028 26.6509 4.30807L26.45 4.29995Z" fill="#868686"/>
</svg>
