<svg width="28" height="28" viewBox="0 0 28 28" fill="none" xmlns="http://www.w3.org/2000/svg">
<path d="M21.2364 2.81827L25.1833 6.76528C26.2744 7.85632 26.2744 9.62523 25.1833 10.7163L21.9743 13.9247C23.3191 14.1264 24.3502 15.2865 24.3502 16.6874V23.2062C24.3502 24.7491 23.0993 26 21.5564 26H4.79377C3.25081 26 2 24.7491 2 23.2062V6.44355C2 4.90059 3.25081 3.64978 4.79377 3.64978H11.3126C12.7143 3.64978 13.875 4.68218 14.0757 6.0281L17.2854 2.81827C18.3765 1.72724 20.1453 1.72724 21.2364 2.81827ZM3.86251 23.2062C3.86251 23.7205 4.27945 24.1375 4.79377 24.1375L12.2426 24.1366L12.2438 15.7562L3.86251 15.7553V23.2062ZM14.1051 24.1366L21.5564 24.1375C22.0707 24.1375 22.4876 23.7205 22.4876 23.2062V16.6874C22.4876 16.173 22.0707 15.7562 21.5564 15.7562L14.1051 15.7553V24.1366ZM11.3126 5.51229H4.79377C4.27945 5.51229 3.86251 5.92923 3.86251 6.44355V13.8928H12.2438V6.44355C12.2438 5.92923 11.8269 5.51229 11.3126 5.51229ZM14.1063 11.4839V13.8937L16.5152 13.8928L14.1063 11.4839ZM18.6023 4.13526L14.6554 8.08228C14.2917 8.44595 14.2917 9.03558 14.6554 9.39927L18.6023 13.3462C18.966 13.7099 19.5557 13.7099 19.9194 13.3462L23.8664 9.39927C24.2301 9.03558 24.2301 8.44595 23.8664 8.08228L19.9194 4.13526C19.5557 3.77159 18.966 3.77159 18.6023 4.13526Z" fill="#868686"/>
</svg>
