<svg width="38" height="32" viewBox="0 0 38 32" fill="none" xmlns="http://www.w3.org/2000/svg">
<path d="M10.5087 24.3721C10.3828 24.2322 10.2736 24.1174 10.1981 24.0363C10.1603 23.9921 10.1257 23.9453 10.0945 23.8963C10.4443 23.5941 11.4043 22.5418 11.5834 21.2964C11.6613 20.6173 11.5936 19.9294 11.3847 19.2786C11.343 19.1547 11.2944 19.0332 11.2392 18.9148C11.2028 18.8 11.172 18.6965 11.1412 18.6125C11.1109 18.5174 11.0754 18.4239 11.0349 18.3327C10.7159 18.4764 10.4137 18.6547 10.1337 18.8644C9.86119 19.0612 9.61725 19.2947 9.40886 19.5585C9.16311 19.8529 8.99476 20.204 8.9191 20.58C8.80865 21.2394 8.87926 21.9165 9.1234 22.539C9.04001 22.4349 8.96778 22.3223 8.9079 22.2032C8.79316 21.9933 8.62804 21.7134 8.47971 21.4335L8.04873 20.6639C7.94518 20.4484 7.8892 20.2973 7.8892 20.2973C8.27261 20.1014 9.3137 19.4101 9.71111 18.3383C9.90871 17.738 9.98017 17.1035 9.92101 16.4744C9.89862 16.1945 9.83425 15.9874 9.81186 15.8195C9.78947 15.6516 9.76988 15.5396 9.76988 15.5396C9.46166 15.5985 9.16119 15.6924 8.87432 15.8195C8.59403 15.955 8.33481 16.1303 8.1047 16.34C7.84526 16.5577 7.63857 16.8314 7.50019 17.1404C7.28382 17.6818 7.20777 18.269 7.2791 18.8476C7.25391 18.8476 7.0832 18.2067 6.89289 17.5658C6.80054 17.244 6.70259 16.9249 6.64102 16.6815L6.57105 16.2701C7.35703 16.0857 8.05159 15.6273 8.53009 14.9771C8.68688 14.722 8.80656 14.4459 8.88551 14.1571C8.97536 13.8978 9.03637 13.6294 9.06742 13.3567C9.09846 13.0702 9.09846 12.7812 9.06742 12.4947C8.78557 12.487 8.50378 12.5123 8.22784 12.5703C7.66849 12.6661 7.16422 12.9651 6.81173 13.4099C6.52495 13.8148 6.34846 14.2874 6.29958 14.7812C6.2714 14.6392 6.25641 14.4949 6.2548 14.3502C6.24081 14.0899 6.22122 13.7429 6.20163 13.3959C6.18204 13.0488 6.16245 12.7018 6.14566 12.4415C6.12887 12.1813 6.16525 12.005 6.16525 12.005C6.86453 12.0135 7.54231 11.7634 8.06831 11.3025C8.25437 11.1131 8.40844 10.8948 8.52449 10.656C8.65055 10.445 8.75285 10.2207 8.82954 9.98715C8.91279 9.74196 8.97001 9.48869 9.00026 9.23152C8.76214 9.17247 8.51794 9.14147 8.27262 9.13917C7.77235 9.11767 7.28184 9.28217 6.89569 9.60094C6.5975 9.88481 6.37523 10.2389 6.24921 10.6308C6.24572 10.5656 6.24572 10.5002 6.24921 10.4349C6.266 10.3202 6.29119 10.1551 6.31358 10.0123C6.35836 9.70169 6.40593 9.39384 6.40593 9.39384C6.63654 9.17037 6.84464 8.92477 7.02722 8.6606C7.30545 8.3288 7.50964 7.94142 7.62613 7.52436C7.74972 6.97295 7.76683 6.40301 7.67651 5.84519C7.63163 5.56018 7.5633 5.27936 7.47221 5.0056C7.22613 5.13142 6.99674 5.28749 6.78934 5.47017C6.30919 5.85075 5.96069 6.37253 5.79303 6.96184C5.68194 7.42003 5.66386 7.89585 5.73986 8.36115C5.816 8.69753 5.93449 9.0229 6.09248 9.32947C6.09248 9.32947 5.98894 9.93958 5.91897 10.5525L5.8658 11.7867C5.7904 11.368 5.63453 10.9678 5.40682 10.6084C5.12133 10.1702 4.70808 9.8302 4.223 9.63453C3.99513 9.53874 3.75488 9.47561 3.50935 9.44702L3.46457 9.74927C3.42828 9.99761 3.4217 10.2494 3.44498 10.4993C3.46454 11.1509 3.64531 11.7874 3.97112 12.352C4.19924 12.6351 4.49106 12.8602 4.82276 13.0091C5.15447 13.1579 5.51666 13.2262 5.87979 13.2084C5.87979 13.2084 5.91897 13.9136 5.96095 14.6217C6.07569 15.3185 6.19603 16.021 6.19603 16.021C6.00282 15.5478 5.71742 15.1178 5.35644 14.756C4.95019 14.3339 4.41791 14.055 3.83959 13.9612C3.56294 13.9084 3.27998 13.8971 3 13.9276C3.01017 14.3339 3.06175 14.738 3.15393 15.1338C3.33195 15.8641 3.69094 16.5378 4.19781 17.0929C5.06539 17.8653 6.15685 17.6218 6.52347 17.5211C6.52347 17.5211 6.71658 18.1759 6.90688 18.8308C7.16436 19.4577 7.42463 20.0846 7.42463 20.0846C7.08301 19.6035 6.66184 19.1843 6.17924 18.8448C5.62942 18.4836 4.97759 18.3099 4.32095 18.3494C4.00648 18.3615 3.69541 18.419 3.3974 18.5202C3.51646 18.9674 3.67088 19.4044 3.85918 19.8271C4.21562 20.5912 4.77398 21.2434 5.47399 21.7134C6.63822 22.3347 7.76606 21.7386 8.13268 21.5315C8.13268 21.5315 8.44333 22.108 8.77917 22.6677C9.15978 23.1939 9.53759 23.7228 9.53759 23.7228C9.03542 23.2742 8.46232 22.912 7.84163 22.6509C7.15365 22.4039 6.40507 22.3814 5.70347 22.5866C5.36484 22.6766 5.04138 22.8162 4.74355 23.0008C4.98778 23.4601 5.26855 23.899 5.58314 24.3133C6.14965 25.0635 6.92008 25.6347 7.80244 25.9589C9.26053 26.3059 10.3016 25.3292 10.6319 25.0074C10.6319 25.0074 10.755 25.1445 10.9453 25.3488L11.2615 25.6958L11.6673 26.0485L12.7868 27L12.9715 26.7201L11.4519 25.4104L10.5087 24.3721Z" fill="#868686"/>
<path d="M31.1178 18.5621C31.1878 18.3159 31.2829 18.0024 31.3781 17.661C31.4732 17.3196 31.574 17.0089 31.6355 16.7598C31.6971 16.5108 31.7083 16.34 31.7083 16.34C32.107 16.4384 32.5239 16.4357 32.9212 16.3321C33.3186 16.2285 33.6837 16.0273 33.9836 15.7467C34.2505 15.4772 34.4616 15.1576 34.6049 14.8064C34.7288 14.4588 34.8225 14.1011 34.8848 13.7373C34.9583 13.3381 35.0023 12.934 35.0163 12.5283C34.7337 12.517 34.451 12.5462 34.1767 12.6151C33.5909 12.7501 33.0611 13.0629 32.6598 13.5106C32.3522 13.9054 32.1172 14.3517 31.9658 14.8288C31.9943 14.684 32.0093 14.5369 32.0106 14.3894C32.0274 14.1263 32.0469 13.7709 32.0665 13.4183C32.0861 13.0656 32.1057 12.7102 32.1197 12.4471C32.1337 12.1841 32.1029 12.005 32.1029 12.005C32.4628 11.9995 32.816 11.9073 33.1326 11.7363C33.4493 11.5653 33.7201 11.3205 33.922 11.0226C34.0983 10.7391 34.2225 10.4263 34.2886 10.0991C34.3344 9.78128 34.3532 9.46015 34.3446 9.13917C34.3373 8.78626 34.3027 8.43445 34.2411 8.08688C33.8582 8.15864 33.4951 8.31136 33.1761 8.53484C32.857 8.75831 32.5894 9.04736 32.3912 9.38265C32.2024 9.75881 32.0812 10.1652 32.033 10.5833C32.0315 10.5167 32.0259 10.4504 32.0162 10.3846C31.9994 10.267 31.977 10.1047 31.9518 9.95357L31.8566 9.32388C32.0146 9.0173 32.1331 8.69193 32.2093 8.35555C32.2867 7.89034 32.2686 7.41424 32.1561 6.95624C31.9884 6.36624 31.6387 5.84422 31.157 5.46457C30.9508 5.28164 30.7223 5.12554 30.4769 5C30.3858 5.27376 30.3175 5.55458 30.2726 5.83959C30.182 6.39751 30.2 6.9677 30.3258 7.51876C30.4401 7.9361 30.6435 8.32373 30.9219 8.65501C31.1053 8.91852 31.3134 9.16403 31.5432 9.38825C31.5432 9.38825 31.6439 9.98715 31.7139 10.5889C31.7839 11.1906 31.7727 11.8035 31.7727 11.8035C31.6693 11.4136 31.4778 11.0526 31.213 10.7484C30.8425 10.3977 30.3544 10.1981 29.8444 10.1887C29.5982 10.1744 29.3511 10.1894 29.1084 10.2334C29.1084 10.2334 29.1084 10.3174 29.142 10.4517C29.1756 10.5861 29.2203 10.7764 29.2595 10.9947C29.3537 11.5052 29.5872 11.9797 29.934 12.366C30.4165 12.8649 31.0687 13.1645 31.7615 13.2056L31.6831 14.6049C31.5684 15.2905 31.4508 15.9734 31.4508 15.9734C31.4371 15.4837 31.3076 15.0042 31.073 14.5741C30.7277 14.0961 30.2255 13.7544 29.6541 13.6086C29.3847 13.5338 29.1078 13.4897 28.8285 13.477C28.8085 13.7649 28.8085 14.0539 28.8285 14.3418C28.816 14.9217 28.9631 15.4939 29.2539 15.9958C29.6846 16.6698 30.3384 17.171 31.101 17.4119C31.101 17.4119 30.9135 18.0528 30.7288 18.6965L30.2194 19.9279C30.3526 19.3632 30.3235 18.7724 30.1355 18.2235C29.8709 17.6259 29.4056 17.1398 28.8201 16.8494C28.5522 16.704 28.2687 16.5894 27.9749 16.508C27.8775 16.8037 27.8155 17.1099 27.7902 17.4203C27.6606 18.0428 27.6915 18.6881 27.8798 19.2954C28.1928 20.1494 28.7843 20.873 29.559 21.3496C29.559 21.3496 29.2511 21.9093 28.9265 22.469C28.5515 22.984 28.1792 23.5017 28.1792 23.5017C28.4171 22.9112 28.669 22.2647 28.5207 21.5707C28.3755 20.8622 27.9875 20.2268 27.4236 19.7739C27.1574 19.5466 26.8675 19.3486 26.5588 19.1834C26.3866 19.4671 26.2494 19.7707 26.1502 20.0874C26.0775 20.3673 25.9431 20.6471 25.8704 20.9914C25.7935 21.3527 25.7765 21.7243 25.82 22.0912C25.9068 23.3282 26.7743 24.4309 27.1074 24.7639C27.1074 24.7639 26.987 24.8982 26.8023 25.0969L26.4917 25.4384L26.0943 25.7826L25.0028 26.7145L25.1875 26.9944C25.1875 26.9944 25.9711 26.3339 26.738 25.6539L28.0113 24.2685C28.0503 24.223 28.0867 24.1753 28.1205 24.1258C28.4759 24.4253 29.5562 25.3068 30.9723 24.8423C31.8678 24.5792 32.5675 23.7592 33.088 23.0511C33.2168 22.8748 33.3315 22.7041 33.4323 22.5446C33.533 22.3851 33.589 22.2283 33.6478 22.1024C33.7653 21.8477 33.8241 21.6882 33.8241 21.6882C33.5163 21.5265 33.1862 21.4114 32.8446 21.3468C32.5198 21.2801 32.1873 21.2584 31.8566 21.2824C31.4666 21.3218 31.0841 21.416 30.7204 21.5623C30.1098 21.8522 29.5621 22.2592 29.1084 22.7601C29.1936 22.6537 29.2668 22.5383 29.3267 22.4159C29.447 22.2032 29.6066 21.9177 29.7633 21.6322C29.92 21.3468 30.0851 21.0725 30.2027 20.8486C30.3202 20.6247 30.3678 20.4736 30.3678 20.4736C30.7568 20.6583 31.879 21.1537 33.0097 20.454C33.7401 20.037 34.1851 19.1806 34.4957 18.4614C34.6305 18.161 34.7409 17.8503 34.826 17.5322C34.8764 17.2888 34.8987 17.1376 34.8987 17.1376C34.5968 17.057 34.2847 17.0212 33.9724 17.0313C33.6742 17.0391 33.3784 17.088 33.0936 17.1768C32.745 17.2685 32.4153 17.421 32.1197 17.6274C31.6572 17.9937 31.2711 18.4472 30.9835 18.9623L31.031 18.856C31.0534 18.786 31.0814 18.6853 31.1178 18.5621Z" fill="#868686"/>
<path d="M22.3301 25.777H15.7086C15.5413 25.7777 15.3811 25.8447 15.2631 25.9632C15.1451 26.0818 15.0789 26.2422 15.0789 26.4095V26.9692H22.9598V26.4095C22.9598 26.2422 22.8936 26.0818 22.7755 25.9632C22.6575 25.8447 22.4974 25.7777 22.3301 25.777Z" fill="#868686"/>
<path d="M22.3301 22.7993H15.7086V25.4188H22.3301V22.7993Z" fill="#868686"/>
<path d="M22.3301 21.1761H15.7086C15.5416 21.1761 15.3814 21.2424 15.2633 21.3605C15.1452 21.4786 15.0789 21.6387 15.0789 21.8058C15.0789 21.9728 15.1452 22.1329 15.2633 22.251C15.3814 22.3691 15.5416 22.4354 15.7086 22.4354H22.3301C22.4971 22.4354 22.6573 22.3691 22.7754 22.251C22.8935 22.1329 22.9598 21.9728 22.9598 21.8058C22.9598 21.6387 22.8935 21.4786 22.7754 21.3605C22.6573 21.2424 22.4971 21.1761 22.3301 21.1761Z" fill="#868686"/>
<path d="M25.8592 6.81911H24.138C24.138 6.57283 24.1548 6.32095 24.1548 6.06908H13.8867C13.8867 6.32095 13.8867 6.57283 13.9007 6.81911H12.1795V7.13535C12.1795 10.9611 13.7523 13.9584 15.7589 13.9668C16.0713 14.485 16.4557 14.9562 16.9008 15.3661V15.5452C16.9109 15.778 16.9971 16.001 17.1463 16.18C17.2954 16.359 17.4992 16.484 17.7264 16.5359H17.7656V18.6125H17.7264C17.4992 18.6644 17.2954 18.7895 17.1463 18.9685C16.9971 19.1474 16.9109 19.3705 16.9008 19.6032V19.7152C16.7082 19.8244 16.548 19.9827 16.4364 20.1739C16.3248 20.3651 16.2658 20.5824 16.2655 20.8038H21.7676C21.7673 20.5824 21.7083 20.3651 21.5967 20.1739C21.4851 19.9827 21.3249 19.8244 21.1323 19.7152V19.6032C21.1218 19.3706 21.0353 19.1478 20.8863 18.9689C20.7372 18.79 20.5336 18.6648 20.3067 18.6125H20.2675V16.5471H20.3067C20.5336 16.4948 20.7372 16.3696 20.8863 16.1907C21.0353 16.0118 21.1218 15.7891 21.1323 15.5564V15.3773C21.5781 14.9681 21.9627 14.4968 22.2741 13.978C24.2808 13.978 25.8536 10.9723 25.8536 7.14655L25.8592 6.81911ZM12.8148 7.4516H13.9342C14.0375 9.46789 14.5288 11.4453 15.3811 13.2755C14.0014 12.8697 12.8903 10.3986 12.8148 7.4516ZM20.7349 19.4437H17.3038C17.3407 19.3317 17.4052 19.2307 17.4912 19.1501C17.5773 19.0694 17.6822 19.0116 17.7963 18.9819H20.2423C20.3567 19.0111 20.4619 19.0687 20.548 19.1495C20.6341 19.2302 20.6984 19.3314 20.7349 19.4437ZM20.2423 16.1833H17.7963C17.682 16.1541 17.5768 16.0965 17.4907 16.0158C17.4046 15.935 17.3403 15.8338 17.3038 15.7215H20.7349C20.6989 15.8341 20.6348 15.9355 20.5486 16.0164C20.4624 16.0972 20.357 16.1546 20.2423 16.1833ZM22.6576 13.2755C23.5112 11.4458 24.0026 9.4681 24.1044 7.4516H25.2239C25.1483 10.3986 24.0373 12.8697 22.6576 13.2755Z" fill="#868686"/>
</svg>
