<svg width="28" height="28" viewBox="0 0 28 28" fill="none" xmlns="http://www.w3.org/2000/svg">
<path d="M25.1001 15.1999C25.5556 15.1999 25.9322 15.5385 25.9918 15.9777L26.0001 16.0999V22.0998C26.0001 24.1794 24.3723 25.8788 22.3214 25.9936L22.1001 25.9998L16.4987 26C17.1422 25.5374 17.6666 24.9194 18.0169 24.2011L22.1001 24.1998C23.2018 24.1998 24.1054 23.3513 24.1931 22.272L24.2001 22.0998V16.0999C24.2001 15.6028 24.6029 15.1999 25.1001 15.1999ZM13.7002 10.3999C15.8541 10.3999 17.6002 12.146 17.6002 14.2999V22.0998C17.6002 24.2537 15.8541 25.9998 13.7002 25.9998H5.90022C3.74634 25.9998 2.00026 24.2537 2.00026 22.0998V14.2999C2.00026 12.146 3.74634 10.3999 5.90022 10.3999H13.7002ZM6.87347 15.3232C6.8254 15.4114 6.80021 15.5102 6.80021 15.6106V20.7891C6.80021 21.1205 7.06884 21.389 7.40021 21.389C7.5006 21.389 7.59938 21.3638 7.68752 21.3158L12.4345 18.7265C12.7253 18.5679 12.8326 18.2034 12.6739 17.9126C12.6188 17.8114 12.5356 17.7282 12.4345 17.6732L7.68752 15.0838C7.39661 14.9252 7.03215 15.0324 6.87347 15.3232ZM22.1001 2C24.1797 2 25.8791 3.62772 25.9938 5.67866L26.0001 5.89996V11.8999C26.0001 12.3969 25.5971 12.7999 25.1001 12.7999C24.6445 12.7999 24.2679 12.4613 24.2083 12.0221L24.2001 11.8999V5.89996C24.2001 4.79817 23.3515 3.89455 22.2723 3.80694L22.1001 3.79998H16.1002C15.603 3.79998 15.2002 3.39704 15.2002 2.89999C15.2002 2.44436 15.5387 2.06781 15.978 2.00822L16.1002 2H22.1001ZM11.9002 2C12.3973 2 12.8002 2.40294 12.8002 2.89999C12.8002 3.35563 12.4616 3.73217 12.0223 3.79176L11.9002 3.79998H5.90022C4.79843 3.79998 3.89481 4.64851 3.8072 5.72773L3.80024 5.89996L3.80019 9.98249C3.08129 10.3328 2.46293 10.8574 2.00008 11.5013L2.00026 5.89996C2.00026 3.82035 3.628 2.1209 5.67892 2.00617L5.90022 2H11.9002Z" fill="#868686"/>
</svg>
