<svg width="232" height="89" viewBox="0 0 232 89" fill="none" xmlns="http://www.w3.org/2000/svg">
<rect x="0.5" y="0.5" width="160" height="88" stroke="#1C4585"/>
<path d="M69.5 74.4004V76H64.4893V74.4004H69.5ZM65.1523 66.0469V76H63.1016V66.0469H65.1523ZM73.957 76.1367C73.3828 76.1367 72.8678 76.0456 72.4121 75.8633C71.9564 75.6764 71.569 75.4189 71.25 75.0908C70.9355 74.7627 70.694 74.3822 70.5254 73.9492C70.3568 73.5117 70.2725 73.0469 70.2725 72.5547V72.2812C70.2725 71.7207 70.3522 71.208 70.5117 70.7432C70.6712 70.2783 70.8991 69.875 71.1953 69.5332C71.4961 69.1914 71.8607 68.9294 72.2891 68.7471C72.7174 68.5602 73.2005 68.4668 73.7383 68.4668C74.2624 68.4668 74.7272 68.5534 75.1328 68.7266C75.5384 68.8997 75.8779 69.1458 76.1514 69.4648C76.4294 69.7839 76.639 70.1667 76.7803 70.6133C76.9215 71.0553 76.9922 71.5475 76.9922 72.0898V72.9102H71.1133V71.5977H75.0576V71.4473C75.0576 71.1738 75.0075 70.93 74.9072 70.7158C74.8115 70.4971 74.6657 70.3239 74.4697 70.1963C74.2738 70.0687 74.0231 70.0049 73.7178 70.0049C73.458 70.0049 73.2347 70.0618 73.0479 70.1758C72.861 70.2897 72.7083 70.4492 72.5898 70.6543C72.4759 70.8594 72.3893 71.1009 72.3301 71.3789C72.2754 71.6523 72.248 71.9531 72.248 72.2812V72.5547C72.248 72.8509 72.2891 73.1243 72.3711 73.375C72.4577 73.6257 72.5785 73.8421 72.7334 74.0244C72.8929 74.2067 73.0843 74.348 73.3076 74.4482C73.5355 74.5485 73.793 74.5986 74.0801 74.5986C74.4355 74.5986 74.766 74.5303 75.0713 74.3936C75.3812 74.2523 75.6478 74.0404 75.8711 73.7578L76.8281 74.7969C76.6732 75.0202 76.4613 75.2344 76.1924 75.4395C75.9281 75.6445 75.609 75.8132 75.2354 75.9453C74.8617 76.0729 74.4355 76.1367 73.957 76.1367ZM80.041 70.1826V76H78.0723V68.6035H79.918L80.041 70.1826ZM79.7539 72.042H79.2207C79.2207 71.4951 79.2913 71.0029 79.4326 70.5654C79.5739 70.1234 79.7721 69.7474 80.0273 69.4375C80.2826 69.123 80.5856 68.8838 80.9365 68.7197C81.292 68.5511 81.6885 68.4668 82.126 68.4668C82.4723 68.4668 82.7891 68.5169 83.0762 68.6172C83.3633 68.7174 83.6094 68.877 83.8145 69.0957C84.0241 69.3145 84.1836 69.6038 84.293 69.9639C84.4069 70.3239 84.4639 70.7637 84.4639 71.2832V76H82.4814V71.2764C82.4814 70.9482 82.4359 70.693 82.3447 70.5107C82.2536 70.3285 82.1191 70.2008 81.9414 70.1279C81.7682 70.0505 81.554 70.0117 81.2988 70.0117C81.0345 70.0117 80.8044 70.0641 80.6084 70.1689C80.417 70.2738 80.2575 70.4196 80.1299 70.6064C80.0068 70.7887 79.9134 71.0029 79.8496 71.249C79.7858 71.4951 79.7539 71.7594 79.7539 72.042ZM89.584 68.6035V69.998H85.2773V68.6035H89.584ZM86.3438 66.7783H88.3125V73.7715C88.3125 73.9857 88.3398 74.1497 88.3945 74.2637C88.4538 74.3776 88.5404 74.4574 88.6543 74.5029C88.7682 74.5439 88.9118 74.5645 89.085 74.5645C89.208 74.5645 89.3174 74.5599 89.4131 74.5508C89.5133 74.5371 89.5977 74.5234 89.666 74.5098L89.6729 75.959C89.5042 76.0137 89.3219 76.057 89.126 76.0889C88.93 76.1208 88.7135 76.1367 88.4766 76.1367C88.0436 76.1367 87.6654 76.0661 87.3418 75.9248C87.0228 75.779 86.7767 75.5465 86.6035 75.2275C86.4303 74.9085 86.3438 74.4893 86.3438 73.9697V66.7783ZM92.626 65.5V76H90.6572V65.5H92.626ZM92.3457 72.042H91.8057C91.8102 71.527 91.8786 71.0531 92.0107 70.6201C92.1429 70.1826 92.332 69.8044 92.5781 69.4854C92.8242 69.1618 93.1182 68.9111 93.46 68.7334C93.8063 68.5557 94.1891 68.4668 94.6084 68.4668C94.973 68.4668 95.3034 68.5192 95.5996 68.624C95.9004 68.7243 96.1579 68.8883 96.3721 69.1162C96.5908 69.3395 96.7594 69.6335 96.8779 69.998C96.9964 70.3626 97.0557 70.8047 97.0557 71.3242V76H95.0732V71.3105C95.0732 70.9824 95.0254 70.7249 94.9297 70.5381C94.8385 70.3467 94.7041 70.2122 94.5264 70.1348C94.3532 70.0527 94.139 70.0117 93.8838 70.0117C93.6012 70.0117 93.3597 70.0641 93.1592 70.1689C92.9632 70.2738 92.806 70.4196 92.6875 70.6064C92.569 70.7887 92.4824 71.0029 92.4277 71.249C92.373 71.4951 92.3457 71.7594 92.3457 72.042Z" fill="#1C4585"/>
<path d="M145.421 59.4297L137.047 57.4473L137.047 56.3398L138.441 56.0869L147 58.1992L147 59.3887L145.421 59.4297ZM137.047 60.4482L145.421 58.8076L147 58.9443L147 60.2705L137.047 62.4785L137.047 60.4482ZM145.387 54.3437L137.047 52.7236L137.047 50.6934L147 52.8945L147 54.2207L145.387 54.3437ZM137.047 55.7178L145.455 53.7217L147 53.7764L147 54.9658L138.435 57.0918L137.047 56.8184L137.047 55.7178ZM139.604 47.624L147 47.624L147 49.5996L139.604 49.5996L139.604 47.624ZM137.676 49.7227C137.389 49.7227 137.152 49.6224 136.965 49.4219C136.778 49.2214 136.685 48.9525 136.685 48.6152C136.685 48.2826 136.778 48.016 136.965 47.8154C137.152 47.6104 137.389 47.5078 137.676 47.5078C137.963 47.5078 138.2 47.6104 138.387 47.8154C138.574 48.0159 138.667 48.2826 138.667 48.6152C138.667 48.9525 138.574 49.2214 138.387 49.4219C138.2 49.6224 137.963 49.7227 137.676 49.7227ZM145.387 41.6289L136.5 41.6289L136.5 39.6465L147 39.6465L147 41.4307L145.387 41.6289ZM143.391 46.3047L143.247 46.3047C142.682 46.3047 142.169 46.2409 141.709 46.1133C141.244 45.9857 140.845 45.7988 140.513 45.5527C140.18 45.3066 139.923 45.0036 139.74 44.6436C139.558 44.2835 139.467 43.8734 139.467 43.4131C139.467 42.9801 139.558 42.6019 139.74 42.2783C139.923 41.9502 140.182 41.6722 140.52 41.4443C140.852 41.2119 141.246 41.0251 141.702 40.8838C142.153 40.7425 142.648 40.64 143.186 40.5762L143.5 40.5762C144.015 40.64 144.493 40.7425 144.936 40.8838C145.378 41.0251 145.765 41.2119 146.098 41.4443C146.426 41.6722 146.681 41.9502 146.863 42.2783C147.046 42.6064 147.137 42.9893 147.137 43.4268C147.137 43.887 147.043 44.2972 146.856 44.6572C146.67 45.0127 146.408 45.3135 146.07 45.5596C145.733 45.8011 145.337 45.9857 144.881 46.1133C144.425 46.2409 143.928 46.3047 143.391 46.3047ZM143.247 44.3359L143.391 44.3359C143.696 44.3359 143.981 44.3132 144.245 44.2676C144.509 44.2174 144.744 44.1377 144.949 44.0283C145.15 43.9144 145.307 43.7686 145.421 43.5908C145.53 43.4085 145.585 43.1875 145.585 42.9277C145.585 42.5905 145.51 42.3125 145.359 42.0937C145.204 41.875 144.993 41.7087 144.724 41.5947C144.455 41.4762 144.145 41.4079 143.794 41.3896L142.898 41.3896C142.611 41.4033 142.354 41.4443 142.126 41.5127C141.894 41.5765 141.695 41.6722 141.531 41.7998C141.367 41.9229 141.24 42.0778 141.148 42.2646C141.057 42.4469 141.012 42.6634 141.012 42.9141C141.012 43.1693 141.071 43.388 141.189 43.5703C141.303 43.7526 141.461 43.9007 141.661 44.0146C141.862 44.124 142.099 44.2061 142.372 44.2607C142.641 44.3109 142.933 44.3359 143.247 44.3359ZM139.604 34.4854L140.998 34.4854L140.998 38.792L139.604 38.792L139.604 34.4854ZM137.778 37.7256L137.778 35.7568L144.771 35.7568C144.986 35.7568 145.15 35.7295 145.264 35.6748C145.378 35.6156 145.457 35.529 145.503 35.415C145.544 35.3011 145.564 35.1576 145.564 34.9844C145.564 34.8613 145.56 34.752 145.551 34.6562C145.537 34.556 145.523 34.4717 145.51 34.4033L146.959 34.3965C147.014 34.5651 147.057 34.7474 147.089 34.9434C147.121 35.1393 147.137 35.3558 147.137 35.5928C147.137 36.0257 147.066 36.404 146.925 36.7275C146.779 37.0465 146.547 37.2926 146.228 37.4658C145.909 37.639 145.489 37.7256 144.97 37.7256L137.778 37.7256ZM136.5 31.4434L147 31.4434L147 33.4121L136.5 33.4121L136.5 31.4434ZM143.042 31.7236L143.042 32.2637C142.527 32.2591 142.053 32.1908 141.62 32.0586C141.183 31.9264 140.804 31.7373 140.485 31.4912C140.162 31.2451 139.911 30.9512 139.733 30.6094C139.556 30.263 139.467 29.8802 139.467 29.4609C139.467 29.0964 139.519 28.7659 139.624 28.4697C139.724 28.1689 139.888 27.9115 140.116 27.6973C140.34 27.4785 140.633 27.3099 140.998 27.1914C141.363 27.0729 141.805 27.0137 142.324 27.0137L147 27.0137L147 28.9961L142.311 28.9961C141.982 28.9961 141.725 29.0439 141.538 29.1396C141.347 29.2308 141.212 29.3652 141.135 29.543C141.053 29.7161 141.012 29.9303 141.012 30.1855C141.012 30.4681 141.064 30.7096 141.169 30.9102C141.274 31.1061 141.42 31.2633 141.606 31.3818C141.789 31.5003 142.003 31.5869 142.249 31.6416C142.495 31.6963 142.759 31.7236 143.042 31.7236Z" fill="#1C4585"/>
<path d="M185.703 33.125C185.703 32.8594 185.661 32.625 185.578 32.4219C185.5 32.2135 185.359 32.026 185.156 31.8594C184.958 31.6927 184.682 31.5339 184.328 31.3828C183.979 31.2318 183.536 31.0781 183 30.9219C182.438 30.7552 181.93 30.5703 181.477 30.3672C181.023 30.1589 180.635 29.9219 180.312 29.6562C179.99 29.3906 179.742 29.0859 179.57 28.7422C179.398 28.3984 179.312 28.0052 179.312 27.5625C179.312 27.1198 179.404 26.7109 179.586 26.3359C179.768 25.9609 180.029 25.6354 180.367 25.3594C180.711 25.0781 181.12 24.8594 181.594 24.7031C182.068 24.5469 182.596 24.4688 183.18 24.4688C184.034 24.4688 184.758 24.6328 185.352 24.9609C185.951 25.2839 186.406 25.7083 186.719 26.2344C187.031 26.7552 187.188 27.3125 187.188 27.9062H185.688C185.688 27.4792 185.596 27.1016 185.414 26.7734C185.232 26.4401 184.956 26.1797 184.586 25.9922C184.216 25.7995 183.747 25.7031 183.18 25.7031C182.643 25.7031 182.201 25.7839 181.852 25.9453C181.503 26.1068 181.242 26.3255 181.07 26.6016C180.904 26.8776 180.82 27.1927 180.82 27.5469C180.82 27.7865 180.87 28.0052 180.969 28.2031C181.073 28.3958 181.232 28.5755 181.445 28.7422C181.664 28.9089 181.94 29.0625 182.273 29.2031C182.612 29.3438 183.016 29.4792 183.484 29.6094C184.13 29.7917 184.688 29.9948 185.156 30.2188C185.625 30.4427 186.01 30.6953 186.312 30.9766C186.62 31.2526 186.846 31.5677 186.992 31.9219C187.143 32.2708 187.219 32.6667 187.219 33.1094C187.219 33.5729 187.125 33.9922 186.938 34.3672C186.75 34.7422 186.482 35.0625 186.133 35.3281C185.784 35.5938 185.365 35.7995 184.875 35.9453C184.391 36.0859 183.849 36.1562 183.25 36.1562C182.724 36.1562 182.206 36.0833 181.695 35.9375C181.19 35.7917 180.729 35.5729 180.312 35.2812C179.901 34.9896 179.57 34.6302 179.32 34.2031C179.076 33.7708 178.953 33.2708 178.953 32.7031H180.453C180.453 33.0938 180.529 33.4297 180.68 33.7109C180.831 33.987 181.036 34.2161 181.297 34.3984C181.562 34.5807 181.862 34.7161 182.195 34.8047C182.534 34.888 182.885 34.9297 183.25 34.9297C183.776 34.9297 184.221 34.8568 184.586 34.7109C184.951 34.5651 185.227 34.3568 185.414 34.0859C185.607 33.8151 185.703 33.4948 185.703 33.125ZM190.375 24V36H188.922V24H190.375ZM195.539 27.5469L191.852 31.4922L189.789 33.6328L189.672 32.0938L191.148 30.3281L193.773 27.5469H195.539ZM194.219 36L191.203 31.9688L191.953 30.6797L195.922 36H194.219ZM200.383 36.1562C199.794 36.1562 199.26 36.0573 198.781 35.8594C198.307 35.6562 197.898 35.3724 197.555 35.0078C197.216 34.6432 196.956 34.2109 196.773 33.7109C196.591 33.2109 196.5 32.6641 196.5 32.0703V31.7422C196.5 31.0547 196.602 30.4427 196.805 29.9062C197.008 29.3646 197.284 28.9062 197.633 28.5312C197.982 28.1562 198.378 27.8724 198.82 27.6797C199.263 27.487 199.721 27.3906 200.195 27.3906C200.799 27.3906 201.32 27.4948 201.758 27.7031C202.201 27.9115 202.562 28.2031 202.844 28.5781C203.125 28.9479 203.333 29.3854 203.469 29.8906C203.604 30.3906 203.672 30.9375 203.672 31.5312V32.1797H197.359V31H202.227V30.8906C202.206 30.5156 202.128 30.151 201.992 29.7969C201.862 29.4427 201.654 29.151 201.367 28.9219C201.081 28.6927 200.69 28.5781 200.195 28.5781C199.867 28.5781 199.565 28.6484 199.289 28.7891C199.013 28.9245 198.776 29.1276 198.578 29.3984C198.38 29.6693 198.227 30 198.117 30.3906C198.008 30.7812 197.953 31.2318 197.953 31.7422V32.0703C197.953 32.4714 198.008 32.849 198.117 33.2031C198.232 33.5521 198.396 33.8594 198.609 34.125C198.828 34.3906 199.091 34.599 199.398 34.75C199.711 34.901 200.065 34.9766 200.461 34.9766C200.971 34.9766 201.404 34.8724 201.758 34.6641C202.112 34.4557 202.422 34.1771 202.688 33.8281L203.562 34.5234C203.38 34.7995 203.148 35.0625 202.867 35.3125C202.586 35.5625 202.24 35.7656 201.828 35.9219C201.422 36.0781 200.94 36.1562 200.383 36.1562ZM208.898 27.5469V28.6562H204.328V27.5469H208.898ZM205.875 25.4922H207.32V33.9062C207.32 34.1927 207.365 34.4089 207.453 34.5547C207.542 34.7005 207.656 34.7969 207.797 34.8438C207.938 34.8906 208.089 34.9141 208.25 34.9141C208.37 34.9141 208.495 34.9036 208.625 34.8828C208.76 34.8568 208.862 34.8359 208.93 34.8203L208.938 36C208.823 36.0365 208.672 36.0703 208.484 36.1016C208.302 36.138 208.081 36.1562 207.82 36.1562C207.466 36.1562 207.141 36.0859 206.844 35.9453C206.547 35.8047 206.31 35.5703 206.133 35.2422C205.961 34.9089 205.875 34.4609 205.875 33.8984V25.4922ZM213.977 34.9688C214.32 34.9688 214.638 34.8984 214.93 34.7578C215.221 34.6172 215.461 34.4245 215.648 34.1797C215.836 33.9297 215.943 33.6458 215.969 33.3281H217.344C217.318 33.8281 217.148 34.2943 216.836 34.7266C216.529 35.1536 216.125 35.5 215.625 35.7656C215.125 36.026 214.576 36.1562 213.977 36.1562C213.341 36.1562 212.786 36.0443 212.312 35.8203C211.844 35.5964 211.453 35.2891 211.141 34.8984C210.833 34.5078 210.602 34.0599 210.445 33.5547C210.294 33.0443 210.219 32.5052 210.219 31.9375V31.6094C210.219 31.0417 210.294 30.5052 210.445 30C210.602 29.4896 210.833 29.0391 211.141 28.6484C211.453 28.2578 211.844 27.9505 212.312 27.7266C212.786 27.5026 213.341 27.3906 213.977 27.3906C214.638 27.3906 215.216 27.526 215.711 27.7969C216.206 28.0625 216.594 28.4271 216.875 28.8906C217.161 29.349 217.318 29.8698 217.344 30.4531H215.969C215.943 30.1042 215.844 29.7891 215.672 29.5078C215.505 29.2266 215.276 29.0026 214.984 28.8359C214.698 28.6641 214.362 28.5781 213.977 28.5781C213.534 28.5781 213.161 28.6667 212.859 28.8438C212.562 29.0156 212.326 29.25 212.148 29.5469C211.977 29.8385 211.852 30.1641 211.773 30.5234C211.701 30.8776 211.664 31.2396 211.664 31.6094V31.9375C211.664 32.3073 211.701 32.6719 211.773 33.0312C211.846 33.3906 211.969 33.7161 212.141 34.0078C212.318 34.2995 212.555 34.5339 212.852 34.7109C213.154 34.8828 213.529 34.9688 213.977 34.9688ZM220.414 24V36H218.969V24H220.414ZM220.07 31.4531L219.469 31.4297C219.474 30.8516 219.56 30.3177 219.727 29.8281C219.893 29.3333 220.128 28.9036 220.43 28.5391C220.732 28.1745 221.091 27.8932 221.508 27.6953C221.93 27.4922 222.396 27.3906 222.906 27.3906C223.323 27.3906 223.698 27.4479 224.031 27.5625C224.365 27.6719 224.648 27.849 224.883 28.0938C225.122 28.3385 225.305 28.6562 225.43 29.0469C225.555 29.4323 225.617 29.9036 225.617 30.4609V36H224.164V30.4453C224.164 30.0026 224.099 29.6484 223.969 29.3828C223.839 29.112 223.648 28.9167 223.398 28.7969C223.148 28.6719 222.841 28.6094 222.477 28.6094C222.117 28.6094 221.789 28.6849 221.492 28.8359C221.201 28.987 220.948 29.1953 220.734 29.4609C220.526 29.7266 220.362 30.0312 220.242 30.375C220.128 30.7135 220.07 31.0729 220.07 31.4531ZM177.867 62H175.492L175.508 60.7734H177.867C178.68 60.7734 179.357 60.6042 179.898 60.2656C180.44 59.9219 180.846 59.4427 181.117 58.8281C181.393 58.2083 181.531 57.4844 181.531 56.6562V55.9609C181.531 55.3099 181.453 54.7318 181.297 54.2266C181.141 53.7161 180.911 53.2865 180.609 52.9375C180.307 52.5833 179.938 52.3151 179.5 52.1328C179.068 51.9505 178.57 51.8594 178.008 51.8594H175.445V50.625H178.008C178.753 50.625 179.432 50.75 180.047 51C180.661 51.2448 181.19 51.6016 181.633 52.0703C182.081 52.5339 182.424 53.0964 182.664 53.7578C182.904 54.4141 183.023 55.1536 183.023 55.9766V56.6562C183.023 57.4792 182.904 58.2214 182.664 58.8828C182.424 59.5391 182.078 60.099 181.625 60.5625C181.177 61.026 180.635 61.3828 180 61.6328C179.37 61.8776 178.659 62 177.867 62ZM176.297 50.625V62H174.789V50.625H176.297ZM186.516 54.875V62H185.07V53.5469H186.477L186.516 54.875ZM189.156 53.5L189.148 54.8438C189.029 54.8177 188.914 54.8021 188.805 54.7969C188.701 54.7865 188.581 54.7812 188.445 54.7812C188.112 54.7812 187.818 54.8333 187.562 54.9375C187.307 55.0417 187.091 55.1875 186.914 55.375C186.737 55.5625 186.596 55.7865 186.492 56.0469C186.393 56.3021 186.328 56.5833 186.297 56.8906L185.891 57.125C185.891 56.6146 185.94 56.1354 186.039 55.6875C186.143 55.2396 186.302 54.8438 186.516 54.5C186.729 54.151 187 53.8802 187.328 53.6875C187.661 53.4896 188.057 53.3906 188.516 53.3906C188.62 53.3906 188.74 53.4036 188.875 53.4297C189.01 53.4505 189.104 53.474 189.156 53.5ZM195.164 60.5547V56.2031C195.164 55.8698 195.096 55.5807 194.961 55.3359C194.831 55.0859 194.633 54.8932 194.367 54.7578C194.102 54.6224 193.773 54.5547 193.383 54.5547C193.018 54.5547 192.698 54.6172 192.422 54.7422C192.151 54.8672 191.938 55.0312 191.781 55.2344C191.63 55.4375 191.555 55.6562 191.555 55.8906H190.109C190.109 55.5885 190.188 55.2891 190.344 54.9922C190.5 54.6953 190.724 54.4271 191.016 54.1875C191.312 53.9427 191.667 53.75 192.078 53.6094C192.495 53.4635 192.958 53.3906 193.469 53.3906C194.083 53.3906 194.625 53.4948 195.094 53.7031C195.568 53.9115 195.938 54.2266 196.203 54.6484C196.474 55.0651 196.609 55.5885 196.609 56.2188V60.1562C196.609 60.4375 196.633 60.737 196.68 61.0547C196.732 61.3724 196.807 61.6458 196.906 61.875V62H195.398C195.326 61.8333 195.268 61.612 195.227 61.3359C195.185 61.0547 195.164 60.7943 195.164 60.5547ZM195.414 56.875L195.43 57.8906H193.969C193.557 57.8906 193.19 57.9245 192.867 57.9922C192.544 58.0547 192.273 58.151 192.055 58.2812C191.836 58.4115 191.669 58.5755 191.555 58.7734C191.44 58.9661 191.383 59.1927 191.383 59.4531C191.383 59.7188 191.443 59.9609 191.562 60.1797C191.682 60.3984 191.862 60.5729 192.102 60.7031C192.346 60.8281 192.646 60.8906 193 60.8906C193.443 60.8906 193.833 60.7969 194.172 60.6094C194.51 60.4219 194.779 60.1927 194.977 59.9219C195.18 59.651 195.289 59.388 195.305 59.1328L195.922 59.8281C195.885 60.0469 195.786 60.2891 195.625 60.5547C195.464 60.8203 195.247 61.0755 194.977 61.3203C194.711 61.5599 194.393 61.7604 194.023 61.9219C193.659 62.0781 193.247 62.1562 192.789 62.1562C192.216 62.1562 191.714 62.0443 191.281 61.8203C190.854 61.5964 190.521 61.2969 190.281 60.9219C190.047 60.5417 189.93 60.1172 189.93 59.6484C189.93 59.1953 190.018 58.7969 190.195 58.4531C190.372 58.1042 190.628 57.8151 190.961 57.5859C191.294 57.3516 191.695 57.1745 192.164 57.0547C192.633 56.9349 193.156 56.875 193.734 56.875H195.414ZM201.023 60.5L203.195 53.5469H204.148L203.961 54.9297L201.75 62H200.82L201.023 60.5ZM199.562 53.5469L201.414 60.5781L201.547 62H200.57L198.117 53.5469H199.562ZM206.227 60.5234L207.992 53.5469H209.43L206.977 62H206.008L206.227 60.5234ZM204.359 53.5469L206.484 60.3828L206.727 62H205.805L203.531 54.9141L203.344 53.5469H204.359ZM212.484 53.5469V62H211.031V53.5469H212.484ZM210.922 51.3047C210.922 51.0703 210.992 50.8724 211.133 50.7109C211.279 50.5495 211.492 50.4688 211.773 50.4688C212.049 50.4688 212.26 50.5495 212.406 50.7109C212.557 50.8724 212.633 51.0703 212.633 51.3047C212.633 51.5286 212.557 51.7214 212.406 51.8828C212.26 52.0391 212.049 52.1172 211.773 52.1172C211.492 52.1172 211.279 52.0391 211.133 51.8828C210.992 51.7214 210.922 51.5286 210.922 51.3047ZM216.25 55.3516V62H214.805V53.5469H216.172L216.25 55.3516ZM215.906 57.4531L215.305 57.4297C215.31 56.8516 215.396 56.3177 215.562 55.8281C215.729 55.3333 215.964 54.9036 216.266 54.5391C216.568 54.1745 216.927 53.8932 217.344 53.6953C217.766 53.4922 218.232 53.3906 218.742 53.3906C219.159 53.3906 219.534 53.4479 219.867 53.5625C220.201 53.6719 220.484 53.849 220.719 54.0938C220.958 54.3385 221.141 54.6562 221.266 55.0469C221.391 55.4323 221.453 55.9036 221.453 56.4609V62H220V56.4453C220 56.0026 219.935 55.6484 219.805 55.3828C219.674 55.112 219.484 54.9167 219.234 54.7969C218.984 54.6719 218.677 54.6094 218.312 54.6094C217.953 54.6094 217.625 54.6849 217.328 54.8359C217.036 54.987 216.784 55.1953 216.57 55.4609C216.362 55.7266 216.198 56.0312 216.078 56.375C215.964 56.7135 215.906 57.0729 215.906 57.4531ZM229.125 53.5469H230.438V61.8203C230.438 62.5651 230.286 63.2005 229.984 63.7266C229.682 64.2526 229.26 64.651 228.719 64.9219C228.182 65.1979 227.562 65.3359 226.859 65.3359C226.568 65.3359 226.224 65.2891 225.828 65.1953C225.438 65.1068 225.052 64.9531 224.672 64.7344C224.297 64.5208 223.982 64.2318 223.727 63.8672L224.484 63.0078C224.839 63.4349 225.208 63.7318 225.594 63.8984C225.984 64.0651 226.37 64.1484 226.75 64.1484C227.208 64.1484 227.604 64.0625 227.938 63.8906C228.271 63.7188 228.529 63.4635 228.711 63.125C228.898 62.7917 228.992 62.3802 228.992 61.8906V55.4062L229.125 53.5469ZM223.305 57.8672V57.7031C223.305 57.0573 223.38 56.4714 223.531 55.9453C223.688 55.4141 223.909 54.9583 224.195 54.5781C224.487 54.1979 224.839 53.9062 225.25 53.7031C225.661 53.4948 226.125 53.3906 226.641 53.3906C227.172 53.3906 227.635 53.4844 228.031 53.6719C228.432 53.8542 228.771 54.1224 229.047 54.4766C229.328 54.8255 229.549 55.2474 229.711 55.7422C229.872 56.237 229.984 56.7969 230.047 57.4219V58.1406C229.99 58.7604 229.878 59.3177 229.711 59.8125C229.549 60.3073 229.328 60.7292 229.047 61.0781C228.771 61.4271 228.432 61.6953 228.031 61.8828C227.63 62.0651 227.161 62.1562 226.625 62.1562C226.12 62.1562 225.661 62.0495 225.25 61.8359C224.844 61.6224 224.495 61.3229 224.203 60.9375C223.911 60.5521 223.688 60.099 223.531 59.5781C223.38 59.0521 223.305 58.4818 223.305 57.8672ZM224.75 57.7031V57.8672C224.75 58.2891 224.792 58.6849 224.875 59.0547C224.964 59.4245 225.096 59.75 225.273 60.0312C225.456 60.3125 225.688 60.5339 225.969 60.6953C226.25 60.8516 226.586 60.9297 226.977 60.9297C227.456 60.9297 227.852 60.8281 228.164 60.625C228.477 60.4219 228.724 60.1536 228.906 59.8203C229.094 59.487 229.24 59.125 229.344 58.7344V56.8516C229.286 56.5651 229.198 56.2891 229.078 56.0234C228.964 55.7526 228.812 55.513 228.625 55.3047C228.443 55.0911 228.216 54.9219 227.945 54.7969C227.674 54.6719 227.357 54.6094 226.992 54.6094C226.596 54.6094 226.255 54.6927 225.969 54.8594C225.688 55.0208 225.456 55.2448 225.273 55.5312C225.096 55.8125 224.964 56.1406 224.875 56.5156C224.792 56.8854 224.75 57.2812 224.75 57.7031Z" fill="#868686"/>
</svg>
