<svg width="160" height="52" viewBox="0 0 160 52" fill="none" xmlns="http://www.w3.org/2000/svg">
<g clip-path="url(#clip0_2952_20615)">
<path d="M47.0568 0.679688H31.5122V13.7984H47.0568V0.679688Z" fill="#8ABC59"/>
<path d="M24.8733 24.0944C24.6678 24.3044 24.4624 24.5144 24.2569 24.7053C23.6334 25.29 22.9598 25.8079 22.2574 26.2446C21.5145 26.7076 20.6831 27.0632 19.7825 27.3018C18.8986 27.5357 17.9287 27.6551 16.8991 27.6551C15.4347 27.6551 14.0706 27.3591 12.8451 26.7792C11.6387 26.2064 10.5852 25.4141 9.71328 24.4237C8.85328 23.4476 8.17244 22.2782 7.68988 20.9465C7.2121 19.6292 6.97082 18.2116 6.97082 16.7319C6.97082 15.2523 7.21449 13.7893 7.69227 12.4863C8.17483 11.1761 8.85567 10.0162 9.71567 9.04016C10.5876 8.04975 11.6411 7.25742 12.8475 6.68466C14.0754 6.10234 15.4371 5.8088 16.8991 5.8088C18.8843 5.8088 20.6258 6.25508 22.0711 7.14048C23.0338 7.72757 23.9464 8.47216 24.792 9.35756L24.8709 9.29552V1.68489C23.8628 1.18372 22.7615 0.770848 21.5646 0.484465C20.2125 0.162284 18.6764 0 16.997 0C14.5365 0 12.2407 0.434348 10.1767 1.28872C8.1151 2.1431 6.31626 3.33636 4.82797 4.83987C3.33252 6.34816 2.14046 8.14521 1.28284 10.1785C0.432392 12.1999 0 14.4075 0 16.7319C0 19.2211 0.439558 21.4572 1.30673 23.4786C2.17868 25.5143 3.37074 27.2923 4.84947 28.7672C6.32104 30.2397 8.08644 31.3995 10.0955 32.2205C12.1094 33.0438 14.2976 33.4615 16.5981 33.4615C18.4017 33.4615 20.0381 33.2753 21.4643 32.9078C22.7089 32.588 23.8484 32.1537 24.8733 31.6262V24.0896V24.0944Z" fill="#1C4585"/>
<path d="M53.8892 32.726H79.2975V27.5567H60.4061V18.9104H77.2861V14.3067H60.4061V5.91095H79.0467V0.679688H53.8892V32.726Z" fill="#1C4585"/>
<path d="M113.516 32.726H120.135V0.679688H112.235L102.985 15.7005L93.7331 0.679688H85.833V32.726H92.3499V9.05639L102.907 25.2179L113.516 8.949V32.726Z" fill="#1C4585"/>
<path d="M152.704 32.726H159.78L146.11 0.679688H138.757L125.085 32.726H131.963L142.362 6.2928L152.704 32.726Z" fill="#1C4585"/>
<path d="M91.9658 45.0796H97.207V49.2775C96.3423 49.9887 94.639 51.0913 92.4006 51.0913C88.2439 51.0913 86.07 47.7358 86.07 44.3804C86.07 41.0249 88.4302 37.71 92.3815 37.71C94.3881 37.71 95.6351 38.3926 96.8965 39.4188L97.09 39.5763L97.692 38.846L97.4985 38.6861C96.132 37.5549 94.7441 36.8008 92.4006 36.8008C87.6729 36.8008 85.1216 40.7147 85.1216 44.4401C85.1216 48.8885 88.1077 51.9982 92.3815 51.9982C95.0331 51.9982 96.9419 50.7715 98.0766 49.7405L98.1578 49.6665V44.1298H91.9658V45.0773V45.0796Z" fill="#1C4585"/>
<path d="M112.983 41.3164V41.2758C112.983 40.147 112.606 39.1733 111.894 38.4597C110.955 37.5218 109.522 37.0469 107.632 37.0469H101.571V51.755H102.52V45.5644H107.426L112.14 51.755H113.32L108.556 45.5047C111.299 45.1945 112.983 43.6194 112.983 41.3164ZM102.522 37.9561H107.594C110.417 37.9561 112.035 39.1733 112.035 41.3378C112.035 43.5024 110.305 44.6575 107.41 44.6575H102.522V37.9538V37.9561Z" fill="#1C4585"/>
<path d="M122.666 36.8047C118.492 36.8047 115.346 40.0623 115.346 44.4225C115.346 48.7827 118.492 51.9997 122.666 51.9997C126.839 51.9997 129.988 48.7421 129.988 44.3819C129.988 40.0217 126.842 36.8047 122.666 36.8047ZM122.687 51.0928C118.686 51.0928 116.295 47.692 116.295 44.3628C116.295 40.573 119.025 37.714 122.647 37.714C126.648 37.714 129.039 41.1148 129.039 44.4034V44.444C129.039 48.2338 126.309 51.0928 122.687 51.0928Z" fill="#1C4585"/>
<path d="M143.905 45.235C143.905 48.9437 142.07 51.0725 138.874 51.0725C135.678 51.0725 133.802 48.9365 133.802 45.2136V37.0469H132.854V45.2136C132.854 49.4496 135.097 51.9794 138.855 51.9794C142.613 51.9794 144.856 49.4496 144.856 45.2136V37.0469H143.907V45.2327L143.905 45.235Z" fill="#1C4585"/>
<path d="M153.58 37.0469H148.332V51.755H149.28V46.1729H153.499C157.13 46.1729 159.297 44.4642 159.297 41.5598C159.297 38.6554 157.161 37.0469 153.58 37.0469ZM153.499 45.2661H149.28V37.9538H153.539C156.549 37.9538 158.346 39.3093 158.346 41.5789V41.6195C158.346 43.9368 156.578 45.2661 153.499 45.2661Z" fill="#1C4585"/>
<path d="M47.0568 19.5586H31.5122V32.7203H47.0568V19.5586Z" fill="#F9AE42"/>
</g>
<defs>
<clipPath id="clip0_2952_20615">
<rect width="159.782" height="52" fill="white"/>
</clipPath>
</defs>
</svg>
