<svg width="169" height="55" viewBox="0 0 169 55" fill="none" xmlns="http://www.w3.org/2000/svg">
<g clip-path="url(#clip0_7735_10155)">
<path d="M49.7714 0.716797H33.33V14.5924H49.7714V0.716797Z" fill="#8ABC59"/>
<path d="M26.3083 25.4844C26.091 25.7065 25.8737 25.9287 25.6564 26.1306C24.9969 26.749 24.2844 27.2968 23.5415 27.7587C22.7557 28.2484 21.8764 28.6245 20.9238 28.877C19.9889 29.1243 18.9631 29.2505 17.8741 29.2505C16.3252 29.2505 14.8824 28.9375 13.5862 28.3242C12.3102 27.7183 11.1959 26.8803 10.2737 25.8328C9.36404 24.8004 8.64393 23.5635 8.13353 22.155C7.62818 20.7616 7.37298 19.2622 7.37298 17.6972C7.37298 16.1322 7.63071 14.5849 8.13605 13.2067C8.64645 11.8209 9.36657 10.5941 10.2762 9.56171C11.1984 8.51416 12.3127 7.67612 13.5887 7.07031C14.8875 6.4544 16.3277 6.14393 17.8741 6.14393C19.9738 6.14393 21.8157 6.61595 23.3444 7.55243C24.3627 8.17339 25.3279 8.96094 26.2224 9.89742L26.3057 9.8318V1.78209C25.2395 1.25201 24.0746 0.81532 22.8087 0.512414C21.3786 0.171646 19.7539 0 17.9776 0C15.3751 0 12.9469 0.459406 10.7638 1.36307C8.58328 2.26674 6.68066 3.52884 5.10651 5.1191C3.52478 6.7144 2.26395 8.61513 1.35685 10.7658C0.457337 12.9038 0 15.2387 0 17.6972C0 20.33 0.464917 22.6952 1.38212 24.8332C2.30437 26.9863 3.56521 28.8669 5.12925 30.4268C6.68571 31.9843 8.55296 33.211 10.6779 34.0793C12.808 34.9502 15.1224 35.3919 17.5557 35.3919C19.4634 35.3919 21.1942 35.195 22.7026 34.8063C24.019 34.4681 25.2243 34.0087 26.3083 33.4508V25.4794V25.4844Z" fill="white"/>
<path d="M56.9979 34.6119H83.8721V29.1444H63.8908V19.9992H81.7446V15.13H63.8908V6.24986H83.6068V0.716797H56.9979V34.6119Z" fill="white"/>
<path d="M120.065 34.6119H127.066V0.716797H118.711L108.927 16.6042L99.1411 0.716797H90.7852V34.6119H97.6781V9.57677L108.844 26.6707L120.065 9.46318V34.6119Z" fill="white"/>
<path d="M161.513 34.6119H168.997L154.54 0.716797H146.762L132.302 34.6119H139.576L150.575 6.65374L161.513 34.6119Z" fill="white"/>
<path d="M97.2714 47.6793H102.815V52.1194C101.9 52.8716 100.099 54.0378 97.7312 54.0378C93.3347 54.0378 91.0354 50.4888 91.0354 46.9397C91.0354 43.3907 93.5318 39.8846 97.711 39.8846C99.8335 39.8846 101.152 40.6065 102.487 41.6919L102.691 41.8585L103.328 41.0861L103.123 40.917C101.678 39.7205 100.21 38.9229 97.7312 38.9229C92.7308 38.9229 90.0323 43.0626 90.0323 47.0028C90.0323 51.708 93.1907 54.997 97.711 54.997C100.516 54.997 102.535 53.6996 103.735 52.6091L103.821 52.5309V46.6747H97.2714V47.6768V47.6793Z" fill="white"/>
<path d="M119.501 43.7011V43.6582C119.501 42.4643 119.102 41.4344 118.349 40.6796C117.356 39.6876 115.84 39.1853 113.842 39.1853H107.431V54.742H108.434V48.1942H113.624L118.61 54.742H119.858L114.819 48.1311C117.72 47.8029 119.501 46.137 119.501 43.7011ZM108.437 40.147H113.801C116.788 40.147 118.498 41.4344 118.498 43.7238C118.498 46.0133 116.669 47.235 113.607 47.235H108.437V40.1445V40.147Z" fill="white"/>
<path d="M129.742 38.928C125.328 38.928 122 42.3735 122 46.9853C122 51.597 125.328 54.9996 129.742 54.9996C134.156 54.9996 137.487 51.5541 137.487 46.9423C137.487 42.3306 134.159 38.928 129.742 38.928ZM129.765 54.0404C125.533 54.0404 123.004 50.4434 123.004 46.9222C123.004 42.9137 125.892 39.8897 129.722 39.8897C133.954 39.8897 136.484 43.4867 136.484 46.9651V47.008C136.484 51.0164 133.596 54.0404 129.765 54.0404Z" fill="white"/>
<path d="M152.207 47.8434C152.207 51.766 150.267 54.0176 146.886 54.0176C143.505 54.0176 141.522 51.7585 141.522 47.8207V39.1829H140.519V47.8207C140.519 52.3012 142.891 54.9768 146.866 54.9768C150.84 54.9768 153.213 52.3012 153.213 47.8207V39.1829H152.21V47.8409L152.207 47.8434Z" fill="white"/>
<path d="M162.441 39.1853H156.889V54.742H157.893V48.8379H162.355C166.195 48.8379 168.487 47.0305 168.487 43.9586C168.487 40.8866 166.228 39.1853 162.441 39.1853ZM162.355 47.8787H157.893V40.1445H162.398C165.581 40.1445 167.481 41.5783 167.481 43.9788V44.0217C167.481 46.4727 165.612 47.8787 162.355 47.8787Z" fill="white"/>
<path d="M49.7714 20.6885H33.33V34.6095H49.7714V20.6885Z" fill="#F9AE42"/>
</g>
<defs>
<clipPath id="clip0_7735_10155">
<rect width="169" height="55" fill="white"/>
</clipPath>
</defs>
</svg>
