<svg width="49" height="50" viewBox="0 0 49 50" fill="none" xmlns="http://www.w3.org/2000/svg">
<g filter="url(#filter0_d_7763_13580)">
<rect width="41" height="41" transform="translate(4 4.19727)" fill="white"/>
<path d="M14.9232 40.5119V39.0383H15.3529C15.4995 39.0383 15.6124 39.0721 15.6916 39.1382C15.7715 39.2051 15.8111 39.2998 15.8111 39.4225C15.8111 39.4981 15.7935 39.5613 15.7576 39.612C15.7217 39.6627 15.6674 39.7016 15.5934 39.7288C15.7004 39.7538 15.7833 39.8001 15.8419 39.8669C15.9006 39.9338 15.9299 40.0146 15.9299 40.11C15.9299 40.232 15.8852 40.3297 15.7957 40.4024C15.7063 40.4751 15.5853 40.5111 15.4328 40.5111H14.9232V40.5119ZM15.1314 39.67H15.2729C15.38 39.67 15.4599 39.6509 15.512 39.612C15.564 39.5738 15.5897 39.5143 15.5897 39.435C15.5897 39.363 15.5692 39.3101 15.5281 39.277C15.487 39.244 15.4218 39.2278 15.3323 39.2278H15.1314V39.67ZM15.1314 40.3194H15.4108C15.5134 40.3194 15.5882 40.301 15.6351 40.265C15.6821 40.229 15.7063 40.1725 15.7063 40.0946C15.7063 40.0168 15.6799 39.9558 15.6271 39.9183C15.5743 39.8809 15.4907 39.8618 15.3771 39.8618H15.1314V40.3194Z" fill="#1C4585"/>
<path d="M16.1609 39.0383H16.3698V39.8838C16.3698 39.9778 16.375 40.0447 16.3852 40.0836C16.3955 40.1233 16.4124 40.1571 16.4366 40.1857C16.4798 40.2371 16.5311 40.2753 16.5913 40.3003C16.6514 40.3253 16.7188 40.3385 16.7944 40.3385C16.9219 40.3385 17.0246 40.3054 17.1023 40.2393C17.18 40.1732 17.2189 40.0865 17.2189 39.9778V39.0368H17.4279V39.9837C17.4279 40.1482 17.3692 40.2812 17.2519 40.3833C17.1353 40.4854 16.9821 40.5368 16.7936 40.5368C16.6822 40.5368 16.5817 40.517 16.4915 40.4773C16.4021 40.4377 16.3258 40.3796 16.2642 40.3025C16.2261 40.257 16.1997 40.2063 16.1836 40.1497C16.1682 40.0939 16.1601 40.0072 16.1601 39.8904V39.0361L16.1609 39.0383Z" fill="#1C4585"/>
<path d="M17.7417 40.5119V39.0383H17.9521V40.5119H17.7417Z" fill="#1C4585"/>
<path d="M18.2799 40.5119V39.0383H18.4881V40.3223H19.1883V40.5119H18.2799Z" fill="#1C4585"/>
<path d="M19.901 39.0383C20.0095 39.0383 20.1026 39.0486 20.1811 39.0692C20.2596 39.0897 20.3307 39.122 20.3959 39.1661C20.4956 39.2337 20.5726 39.3204 20.6269 39.4262C20.6812 39.5319 20.7083 39.648 20.7083 39.7751C20.7083 39.9022 20.6812 40.019 20.6262 40.1255C20.5719 40.232 20.4949 40.3187 20.3959 40.3855C20.3321 40.4296 20.261 40.4619 20.1811 40.4825C20.1019 40.503 20.0088 40.5133 19.9003 40.5133H19.3599V39.0398H19.9003L19.901 39.0383ZM19.901 39.2396H19.5689V40.3121H19.901C20.0821 40.3121 20.2251 40.2643 20.3285 40.1688C20.4326 40.0733 20.4839 39.9426 20.4839 39.7766C20.4839 39.6105 20.4319 39.479 20.3285 39.3836C20.2251 39.2873 20.0821 39.2396 19.901 39.2396Z" fill="#1C4585"/>
<path d="M21.8514 40.5119V39.7743L21.2839 39.0383H21.5332L21.9621 39.5973L22.4013 39.0383H22.655L22.0655 39.7854V40.5119H21.8514Z" fill="#1C4585"/>
<path d="M22.5978 39.7699C22.5978 39.6715 22.6176 39.576 22.6579 39.4835C22.6982 39.3909 22.7547 39.3086 22.828 39.2381C22.9028 39.1661 22.9879 39.1103 23.0824 39.0728C23.177 39.0346 23.2767 39.0163 23.3809 39.0163C23.485 39.0163 23.5884 39.0354 23.6844 39.0736C23.7805 39.1118 23.864 39.1669 23.9374 39.2381C24.0136 39.3123 24.0716 39.3953 24.1097 39.4871C24.1478 39.5782 24.1676 39.6774 24.1676 39.7839C24.1676 39.8845 24.1478 39.9808 24.1082 40.0726C24.0686 40.1651 24.0122 40.2459 23.9396 40.3165C23.8633 40.3892 23.7775 40.445 23.6837 40.4825C23.5891 40.5199 23.4886 40.539 23.3816 40.539C23.2745 40.539 23.177 40.5199 23.0817 40.481C22.9857 40.4421 22.9013 40.3877 22.8287 40.3165C22.7532 40.2423 22.696 40.1593 22.6572 40.0667C22.6183 39.9742 22.5985 39.875 22.5985 39.7699H22.5978ZM22.8214 39.7773C22.8214 39.8522 22.8353 39.9242 22.8632 39.9925C22.8911 40.0608 22.9314 40.1211 22.9842 40.174C23.0355 40.2268 23.0956 40.2672 23.1646 40.2959C23.2335 40.3245 23.3053 40.3385 23.3809 40.3385C23.4564 40.3385 23.5304 40.3245 23.5979 40.2966C23.6653 40.2687 23.7262 40.2276 23.779 40.174C23.8318 40.1211 23.8721 40.0608 23.9007 39.9925C23.9293 39.9242 23.9432 39.8529 23.9432 39.7773C23.9432 39.7016 23.9293 39.6311 23.9014 39.5643C23.8736 39.4974 23.8318 39.4357 23.7775 39.3806C23.7247 39.3263 23.6646 39.2851 23.5964 39.2572C23.5282 39.2286 23.4564 39.2146 23.3809 39.2146C23.3053 39.2146 23.2371 39.2293 23.169 39.2579C23.1008 39.2866 23.0392 39.3277 22.9842 39.3814C22.9314 39.4328 22.8911 39.493 22.8632 39.5613C22.8353 39.6304 22.8214 39.7024 22.8214 39.778V39.7773Z" fill="#1C4585"/>
<path d="M24.3927 39.0383H24.6017V39.8838C24.6017 39.9778 24.6068 40.0447 24.6171 40.0836C24.6273 40.1233 24.6442 40.1571 24.6684 40.1857C24.7116 40.2371 24.763 40.2753 24.8231 40.3003C24.8832 40.3253 24.9507 40.3385 25.0262 40.3385C25.1538 40.3385 25.2564 40.3054 25.3342 40.2393C25.4119 40.1732 25.4507 40.0865 25.4507 39.9778V39.0368H25.6597V39.9837C25.6597 40.1482 25.601 40.2812 25.4837 40.3833C25.3671 40.4854 25.2139 40.5368 25.0255 40.5368C24.914 40.5368 24.8136 40.517 24.7234 40.4773C24.6339 40.4377 24.5577 40.3796 24.4961 40.3025C24.458 40.257 24.4316 40.2063 24.4154 40.1497C24.4 40.0939 24.392 40.0072 24.392 39.8904V39.0361L24.3927 39.0383Z" fill="#1C4585"/>
<path d="M25.9647 40.5119V39.0383H26.3958C26.5447 39.0383 26.6591 39.0736 26.7397 39.1433C26.8204 39.2131 26.8607 39.313 26.8607 39.4416C26.8607 39.5385 26.8387 39.6164 26.7947 39.6752C26.7507 39.7339 26.6803 39.778 26.5858 39.8081C26.6099 39.8214 26.6334 39.839 26.6554 39.861C26.6774 39.8831 26.7053 39.9205 26.7397 39.9719L27.0975 40.5111H26.8431L26.5909 40.1247C26.5154 40.0079 26.4545 39.9338 26.4076 39.9014C26.3607 39.8691 26.3057 39.8529 26.2411 39.8529H26.1781V40.5111H25.9669L25.9647 40.5119ZM26.1759 39.6767H26.3504C26.4486 39.6767 26.522 39.6576 26.5704 39.6201C26.6187 39.5819 26.6437 39.5239 26.6437 39.446C26.6437 39.3681 26.6209 39.3079 26.574 39.2719C26.5278 39.2359 26.453 39.2175 26.3504 39.2175H26.1759V39.6767Z" fill="#1C4585"/>
<path d="M28.267 39.0383C28.3755 39.0383 28.4687 39.0486 28.5471 39.0692C28.6256 39.0897 28.6967 39.122 28.7619 39.1661C28.8617 39.2337 28.9386 39.3204 28.9929 39.4262C29.0472 39.5319 29.0743 39.648 29.0743 39.7751C29.0743 39.9022 29.0472 40.019 28.9922 40.1255C28.9379 40.232 28.8609 40.3187 28.7619 40.3855C28.6982 40.4296 28.627 40.4619 28.5471 40.4825C28.4679 40.503 28.3748 40.5133 28.2663 40.5133H27.7259V39.0398H28.2663L28.267 39.0383ZM28.267 39.2396H27.9349V40.3121H28.267C28.4481 40.3121 28.5911 40.2643 28.6945 40.1688C28.7986 40.0733 28.8499 39.9426 28.8499 39.7766C28.8499 39.6105 28.7979 39.479 28.6945 39.3836C28.5911 39.2873 28.4481 39.2396 28.267 39.2396Z" fill="#1C4585"/>
<path d="M29.3192 40.5119V39.0383H29.7503C29.8992 39.0383 30.0135 39.0736 30.0942 39.1433C30.1749 39.2131 30.2152 39.313 30.2152 39.4416C30.2152 39.5385 30.1932 39.6164 30.1492 39.6752C30.1052 39.7339 30.0348 39.778 29.9402 39.8081C29.9644 39.8214 29.9879 39.839 30.0099 39.861C30.0319 39.8831 30.0597 39.9205 30.0942 39.9719L30.452 40.5111H30.1976L29.9454 40.1247C29.8698 40.0079 29.809 39.9338 29.7621 39.9014C29.7151 39.8691 29.6601 39.8529 29.5956 39.8529H29.5326V40.5111H29.3214L29.3192 40.5119ZM29.5304 39.6767H29.7049C29.8031 39.6767 29.8764 39.6576 29.9248 39.6201C29.9732 39.5819 29.9981 39.5239 29.9981 39.446C29.9981 39.3681 29.9754 39.3079 29.9285 39.2719C29.8823 39.2359 29.8075 39.2175 29.7049 39.2175H29.5304V39.6767Z" fill="#1C4585"/>
<path d="M30.5385 40.5119V39.0383H31.4228V39.2256H30.7468V39.6722H31.4037V39.8625H30.7468V40.3216H31.4448V40.5111H30.5385V40.5119Z" fill="#1C4585"/>
<path d="M31.5049 40.5119L32.1421 39.0383H32.2953L32.9413 40.5119H32.7235L32.5343 40.0777H31.9082L31.7212 40.5119H31.5049ZM31.9896 39.8882H32.4478L32.2154 39.3571L31.9896 39.8882Z" fill="#1C4585"/>
<path d="M33.0513 40.5119V39.0383H33.2346L33.7632 39.6576L34.2933 39.0383H34.4766V40.5119H34.2728V39.3615L33.764 39.9558L33.2566 39.3615V40.5119H33.0513Z" fill="#1C4585"/>
<path d="M9.47099 36.8853C9.25103 37.0109 9.0208 37.1056 8.7803 37.1703C8.5398 37.2349 8.29124 37.2673 8.03608 37.2673C7.7406 37.2673 7.47151 37.2224 7.22734 37.1328C6.98318 37.0432 6.76762 36.9095 6.57918 36.7325C6.39148 36.5554 6.24777 36.3454 6.14732 36.1037C6.09892 35.9817 6.06226 35.8569 6.03733 35.7291C6.0124 35.6012 5.99994 35.4661 5.99994 35.3243C5.99994 34.7403 6.19424 34.2695 6.58358 33.9117C6.97292 33.554 7.48617 33.3755 8.1248 33.3755C8.35723 33.3755 8.58233 33.4005 8.79936 33.4511C9.0164 33.5011 9.22976 33.5782 9.43946 33.6825V34.564C9.23343 34.4296 9.02446 34.329 8.81183 34.2628C8.5992 34.1967 8.39096 34.1637 8.18713 34.1637C7.80805 34.1637 7.50963 34.2665 7.2926 34.4729C7.07557 34.6794 6.96632 34.9629 6.96632 35.325C6.96632 35.6872 7.07044 35.9568 7.2772 36.1661C7.4847 36.3762 7.76406 36.4805 8.11454 36.4805C8.3433 36.4805 8.56987 36.4409 8.7935 36.3608C9.01713 36.2815 9.24296 36.1632 9.47246 36.0075V36.886L9.47099 36.8853Z" fill="#1C4585"/>
<path d="M10.026 37.2004V33.4401H10.9653V34.9482H12.6363V33.4401H13.5755V37.2004H12.6363V35.6762H10.9653V37.2004H10.026Z" fill="#1C4585"/>
<path d="M14.3102 37.2004V33.4401H16.8215V34.1336H15.2495V34.8997H16.7518V35.5983H15.2495V36.4959H16.867V37.2004H14.3102Z" fill="#1C4585"/>
<path d="M17.4653 37.2004V33.4401H18.2945L19.4992 34.9533L20.709 33.4401H21.5383V37.2004H20.6152V34.8725L19.4992 36.2484L18.3935 34.8725V37.2004H17.4653Z" fill="#1C4585"/>
<path d="M21.7956 37.2004L23.4322 33.4401H24.5159L25.9779 37.2004H24.9829L24.7146 36.4695H23.0971L22.7965 37.2004H21.7956ZM23.3677 35.8246H24.4756L23.9498 34.3951L23.3677 35.8246Z" fill="#1C4585"/>
<path d="M27.7347 37.2004V33.4401H30.1624V34.1336H28.6732V34.9482H30.0707V35.6549H28.6732V37.2004H27.734H27.7347Z" fill="#1C4585"/>
<path d="M30.5488 35.3243C30.5488 35.043 30.5979 34.7837 30.6962 34.5464C30.7944 34.3091 30.9411 34.0983 31.1361 33.9132C31.3201 33.7398 31.535 33.6061 31.7799 33.5128C31.8964 33.4717 32.0233 33.4394 32.1626 33.4159C32.3012 33.3924 32.442 33.3806 32.5849 33.3806C32.7352 33.3806 32.8768 33.3916 33.0102 33.4129C33.1437 33.4342 33.272 33.4688 33.3951 33.5151C33.6364 33.601 33.8527 33.7347 34.0433 33.9169C34.2339 34.099 34.3791 34.3091 34.4796 34.5486C34.58 34.7881 34.6299 35.0459 34.6299 35.3236C34.6299 35.6012 34.5808 35.8635 34.4825 36.1C34.3843 36.3365 34.2391 36.5437 34.0462 36.7222C33.8541 36.9007 33.6356 37.0359 33.3915 37.1277C33.1473 37.2202 32.879 37.2665 32.5857 37.2665C32.2924 37.2665 32.0233 37.2217 31.7835 37.1321C31.5438 37.0425 31.3289 36.908 31.1383 36.7273C30.9477 36.5474 30.8018 36.3373 30.7006 36.0971C30.5994 35.8569 30.5488 35.599 30.5488 35.3228V35.3243ZM31.5144 35.3243C31.5144 35.6578 31.6149 35.9325 31.8165 36.1492C32.0174 36.3659 32.2741 36.4746 32.5849 36.4746C32.8958 36.4746 33.1502 36.3667 33.3533 36.1507C33.5565 35.9347 33.6576 35.6593 33.6576 35.3243C33.6576 34.9893 33.5572 34.708 33.3555 34.4928C33.1546 34.2768 32.8973 34.1688 32.5842 34.1688C32.2711 34.1688 32.0189 34.2775 31.8173 34.4942C31.6149 34.7109 31.5137 34.9879 31.5137 35.325L31.5144 35.3243Z" fill="#1C4585"/>
<path d="M34.7017 37.2004L36.3383 33.4401H37.422L38.884 37.2004H37.889L37.6207 36.4695H36.0032L35.7026 37.2004H34.7017ZM36.2738 35.8246H37.3816L36.8559 34.3951L36.2738 35.8246Z" fill="#1C4585"/>
<path d="M39.1421 37.2004V33.4401H39.9714L41.176 34.9533L42.3859 33.4401H43.2151V37.2004H42.292V34.8725L41.176 36.2484L40.0704 34.8725V37.2004H39.1421Z" fill="#1C4585"/>
<path d="M28.0317 25.2247C28.0317 25.2247 28.597 24.3733 27.8901 23.602C27.8901 23.602 28.1702 24.2514 28.0317 25.2247Z" fill="#1C4585"/>
<path d="M28.5713 26.4103C28.5713 26.4103 29.2407 26.187 30.1961 26.4103C30.1961 26.4103 29.3991 25.7727 28.5713 26.4103Z" fill="#1C4585"/>
<path d="M24.6999 8.19727C18.4118 8.19727 13.3138 13.3025 13.3138 19.6037C13.3138 25.9049 18.4118 31.0102 24.6992 31.0102C30.9865 31.0102 36.0846 25.9027 36.0846 19.6037C36.0846 13.3048 30.9873 8.19727 24.6999 8.19727ZM25.0519 28.5846H22.7312V16.2519C22.7312 15.2741 22.7723 14.5638 22.8529 14.1238C22.9343 13.6831 23.0773 13.2996 23.2804 12.9735C23.6067 12.4431 24.0562 12.031 24.6303 11.7379C25.2036 11.4441 25.8459 11.2964 26.5535 11.2964C26.7735 11.2964 27.0235 11.3185 27.305 11.3581C27.5859 11.3985 27.9371 11.4683 28.3609 11.566V13.5486C28.0434 13.4833 27.7684 13.4333 27.5367 13.4017C27.305 13.3701 27.1034 13.3532 26.9318 13.3532C26.2485 13.3532 25.7638 13.5413 25.4786 13.9233C25.1941 14.3016 25.0519 14.9642 25.0519 15.9118V17.281H28.0273V19.2386H25.0519V28.5861V28.5846ZM26.5168 28.5993C28.4914 24.9764 31.8297 22.7734 31.8297 22.7734C28.5618 24.4321 26.827 26.9847 26.1246 28.2511C25.9655 27.5452 25.8195 25.9063 27.2332 24.1764C27.9803 23.2626 28.8001 22.7477 29.5611 22.4641C29.5626 22.6485 29.5333 23.2567 29.1557 23.9832C29.1557 23.9832 29.9388 23.3904 29.5787 22.459C31.106 21.8985 32.3972 22.2746 32.3972 22.2746C32.1457 27.7736 27.6951 28.5031 26.5161 28.6L26.5168 28.5993Z" fill="#1C4585"/>
<path d="M29.8148 24.9742C29.8148 24.9742 30.4828 24.7509 31.4389 24.9742C31.4389 24.9742 30.6419 24.3358 29.8148 24.9742Z" fill="#1C4585"/>
</g>
<defs>
<filter id="filter0_d_7763_13580" x="0" y="0.197266" width="49" height="49" filterUnits="userSpaceOnUse" color-interpolation-filters="sRGB">
<feFlood flood-opacity="0" result="BackgroundImageFix"/>
<feColorMatrix in="SourceAlpha" type="matrix" values="0 0 0 0 0 0 0 0 0 0 0 0 0 0 0 0 0 0 127 0" result="hardAlpha"/>
<feOffset/>
<feGaussianBlur stdDeviation="2"/>
<feComposite in2="hardAlpha" operator="out"/>
<feColorMatrix type="matrix" values="0 0 0 0 0 0 0 0 0 0 0 0 0 0 0 0 0 0 0.25 0"/>
<feBlend mode="normal" in2="BackgroundImageFix" result="effect1_dropShadow_7763_13580"/>
<feBlend mode="normal" in="SourceGraphic" in2="effect1_dropShadow_7763_13580" result="shape"/>
</filter>
</defs>
</svg>
