<svg
              width="24"
              height="24"
              viewBox="0 0 24 24"
              fill="none"
              xmlns="http://www.w3.org/2000/svg"
            >
              <mask
                id="path-1-outside-1_3080_20621"
                maskUnits="userSpaceOnUse"
                x="0.999023"
                y="1"
                width="23"
                height="23"
                fill="black"
              >
                <rect fill="white" x="0.999023" y="1" width="23" height="23" />
                <path d="M16.4665 15.9258C15.1759 17.3726 13.5457 18.2405 11.6372 18.5515C10.0177 18.8248 8.35326 18.5961 6.86743 17.8959C5.20329 17.1251 3.92312 15.9331 3.0328 14.3334C2.47753 13.3506 2.13946 12.2601 2.04139 11.1355C2.04044 11.1241 2.04015 11.1127 2.03986 11.1013C2.03878 11.0588 2.0377 11.0166 2.00195 10.9808V9.66864C2.04445 9.5383 2.05596 9.40336 2.06747 9.26846C2.07438 9.18749 2.08128 9.10654 2.09489 9.02661C2.33469 7.63009 2.86915 6.36143 3.74315 5.2433C5.01637 3.61584 6.66343 2.58914 8.68433 2.16323C8.90834 2.11598 9.13494 2.08169 9.3616 2.04738C9.46335 2.03198 9.56512 2.01658 9.66667 2H11.0176C11.1139 2.01653 11.2104 2.03261 11.307 2.0487C11.5309 2.08599 11.7551 2.12332 11.9768 2.1664C13.1522 2.39311 14.2194 2.87736 15.1922 3.57199C15.4034 3.72117 15.4497 3.92024 15.3282 4.10115C15.2067 4.28206 14.9855 4.31652 14.7688 4.16553C14.1794 3.74547 13.5349 3.40872 12.8535 3.16483C11.652 2.73727 10.3611 2.62442 9.10365 2.83701C7.24413 3.14397 5.70693 4.02995 4.49657 5.46682C3.59497 6.5294 3.01335 7.82608 2.81929 9.20616C2.61829 10.5224 2.77196 11.8685 3.26445 13.1055C3.75455 14.3589 4.57208 15.4577 5.63168 16.2872C6.52603 16.9997 7.57219 17.4971 8.68932 17.7408C9.63823 17.9536 10.6197 17.9775 11.5779 17.8111C13.4144 17.4901 14.9327 16.621 16.1328 15.204C17.0472 14.1341 17.636 12.8247 17.8296 11.4306C18.0739 9.74664 17.7788 8.15967 16.9737 6.6634C16.7475 6.25791 16.4883 5.8718 16.1985 5.509C16.0884 5.36844 16.0635 5.21337 16.1713 5.05558C16.2629 4.92137 16.3935 4.88509 16.5476 4.91048C16.6655 4.92952 16.7357 5.01252 16.8046 5.09867C17.6469 6.15785 18.2258 7.34398 18.4778 8.67521C18.9969 11.4188 18.3223 13.8451 16.4665 15.9258Z" />
                <path d="M21.0409 3.80778C20.8564 3.81367 20.6719 3.81277 20.4874 3.80778C20.2607 3.80143 20.1116 3.67175 20.0953 3.4727C20.0772 3.28816 20.2213 3.11132 20.4398 3.08729C20.637 3.07073 20.8351 3.06711 21.0328 3.07642C21.1474 3.0796 21.1946 3.04785 21.186 2.92543C21.1819 2.86702 21.1833 2.80819 21.1848 2.7494C21.1864 2.68513 21.188 2.62042 21.1823 2.55681C21.1619 2.33373 21.2127 2.14328 21.394 2H21.6801C21.9104 2.15235 21.9244 2.3827 21.9203 2.62936C21.9122 3.07505 21.9181 3.07505 22.3655 3.07505C22.3885 3.07514 22.4117 3.07479 22.4348 3.07444C22.5342 3.07293 22.6334 3.07143 22.7309 3.10454C22.9099 3.1653 23.0178 3.31309 22.9875 3.49446C22.9571 3.67583 22.8483 3.79237 22.6597 3.8028C22.4688 3.81443 22.2773 3.81565 22.0863 3.80643C21.9475 3.79917 21.9077 3.85085 21.9158 3.98279C21.9242 4.14652 21.9242 4.31058 21.9158 4.47431C21.904 4.7314 21.7454 4.90596 21.5382 4.90142C21.3242 4.89734 21.1873 4.72867 21.1833 4.46116C21.1796 4.29022 21.1765 4.11927 21.1833 3.94878C21.1873 3.84087 21.1465 3.80415 21.0409 3.80778Z" />
                <path d="M2.6722 21.5522C2.31907 21.5735 2.13049 21.7975 1.99902 22.0935V22.4626L2.08515 22.6186C2.1688 22.7732 2.30573 22.8922 2.47049 22.9534C2.63525 23.0146 2.81663 23.0139 2.98091 22.9514C3.14452 22.8875 3.27981 22.767 3.36223 22.6119C3.44466 22.4567 3.46875 22.2772 3.43015 22.1058C3.3626 21.7684 3.03486 21.5304 2.6722 21.5522Z" />
                <path d="M20.6092 9.87003C21.8807 11.0829 22.6636 12.5547 22.9139 14.3022C22.9688 14.6617 22.9976 15.0248 23 15.3886C22.8894 18.3471 21.5902 20.6115 19.0026 22.0792C17.664 22.8382 16.1979 23.1139 14.6607 22.9606C12.4562 22.7412 10.6915 21.7301 9.33831 19.9858C9.18781 19.7931 9.18237 19.6294 9.30522 19.487C9.42807 19.3446 9.57631 19.3111 9.74539 19.39C9.83558 19.4299 9.89521 19.5085 9.95365 19.5855L9.97749 19.6167C10.4856 20.2803 11.1133 20.8428 11.8284 21.2753C13.231 22.1173 14.7441 22.427 16.3643 22.1898C18.3498 21.8987 19.9151 20.9112 21.0534 19.2744C21.9986 17.9155 22.3826 16.3888 22.2225 14.7366C22.0322 12.7701 21.1319 11.1908 19.5906 9.96889C19.5472 9.93564 19.5058 9.89975 19.4668 9.86142C19.3168 9.70681 19.2955 9.51773 19.4215 9.36266C19.5475 9.20759 19.737 9.1754 19.9156 9.29601C20.1626 9.4674 20.3946 9.65942 20.6092 9.87003Z" />
                <path d="M10.8195 13.7629C11.2166 13.7218 11.5887 13.5494 11.8771 13.2732C12.4006 12.7785 12.6024 12.1687 12.4482 11.4695C12.2991 10.7894 11.8784 10.3219 11.2206 10.0757C10.9089 9.95914 10.586 9.95774 10.2628 9.95635C10.1911 9.95604 10.1194 9.95573 10.0479 9.95417C9.42958 9.94056 8.91779 9.45042 8.88696 8.851C8.86551 8.54819 8.96287 8.24893 9.15837 8.01673C9.35388 7.78453 9.63214 7.63766 9.93413 7.60728C10.2191 7.57362 10.5051 7.57829 10.791 7.58296C10.9557 7.58565 11.1205 7.58834 11.285 7.5837C11.5634 7.57554 11.7139 7.45175 11.717 7.22777C11.7202 7.00378 11.5679 6.86503 11.2982 6.85007C11.1413 6.84236 10.9836 6.84281 10.8272 6.85007C10.7179 6.85505 10.6844 6.81334 10.6912 6.70815C10.698 6.54447 10.6971 6.37987 10.6912 6.21619C10.6835 5.98449 10.5325 5.82353 10.3285 5.82036C10.1245 5.81718 9.97039 5.97771 9.95906 6.20895C9.95135 6.37218 9.95135 6.53676 9.95906 6.70045C9.96495 6.82106 9.94002 6.87456 9.79949 6.89133C9.38108 6.94166 9.02477 7.13164 8.71787 7.42138C7.71422 8.36902 8.12448 10.151 9.4382 10.5776C9.75393 10.6803 10.0728 10.6847 10.3935 10.6892C10.4595 10.6901 10.5257 10.691 10.5919 10.6928C11.2179 10.7096 11.7329 11.1961 11.7601 11.7882C11.7905 12.443 11.3684 12.9503 10.7252 13.0428C10.5424 13.0698 10.3597 13.0673 10.177 13.0647C10.0529 13.0629 9.92889 13.0612 9.80493 13.0687C9.71833 13.0687 9.63173 13.068 9.54515 13.0674C9.37211 13.0661 9.19889 13.0648 9.02613 13.0687C8.93634 13.0662 8.84926 13.0995 8.78399 13.1612C8.71871 13.223 8.68059 13.3081 8.67798 13.3979C8.66257 13.6314 8.81806 13.7874 9.09277 13.7969C9.33121 13.805 9.57102 13.8041 9.80947 13.7969C9.92688 13.7928 9.96541 13.8327 9.95951 13.9483C9.95135 14.112 9.95181 14.2766 9.95951 14.4403C9.9713 14.6706 10.1295 14.8302 10.3308 14.8261C10.5321 14.822 10.683 14.662 10.6907 14.4294C10.6962 14.2589 10.6953 14.088 10.6907 13.9175C10.6871 13.8241 10.7066 13.7756 10.8195 13.7629Z" />
                <path d="M16.4745 10.2966C16.4464 9.52802 16.3254 8.77943 16.0335 8.06212C15.4547 6.64867 14.4919 5.58374 13.1449 4.86734C12.2854 4.41165 11.3611 4.20989 10.3946 4.17362C10.1167 4.16319 9.9481 4.01311 9.9617 3.79003C9.9753 3.56695 10.1562 3.43318 10.4318 3.4418C12.2627 3.50074 13.8516 4.14958 15.1572 5.43683C16.2488 6.51279 16.9097 7.82091 17.1323 9.34484C17.1491 9.46061 17.1589 9.57713 17.1686 9.69362C17.1759 9.78105 17.1832 9.86851 17.1935 9.95559C17.195 9.98956 17.197 10.0235 17.1989 10.0575C17.2032 10.1327 17.2076 10.208 17.2076 10.283C17.2035 10.5273 17.0484 10.6942 16.8372 10.691C16.6318 10.6879 16.4836 10.5323 16.4745 10.2966Z" />
                <path d="M15.4069 20.8262C15.1802 20.8344 15.0384 20.9759 15.0343 21.1785C15.0297 21.3885 15.1793 21.544 15.4083 21.5553C15.5174 21.5558 15.6265 21.5507 15.7351 21.5399C16.2668 21.5171 16.7925 21.4184 17.2963 21.247C19.014 20.6621 20.2533 19.5399 21.0136 17.894C21.3708 17.1232 21.5244 16.3016 21.5489 15.4555C21.5562 15.2084 21.4088 15.0474 21.1949 15.0393C20.9728 15.0329 20.8381 15.1753 20.8173 15.4297C20.8113 15.502 20.8064 15.5744 20.8016 15.6468C20.7886 15.8394 20.7755 16.0328 20.7429 16.224C20.4397 18.0205 19.4736 19.3408 17.882 20.2082C17.1141 20.6276 16.2764 20.7963 15.4069 20.8262Z" />
                <path d="M5.03302 13.4404C5.98816 15.0002 7.35447 15.9809 9.14961 16.355L9.16877 16.359C9.33724 16.3947 9.50807 16.4308 9.57663 16.6247C9.67727 16.9063 9.44563 17.1571 9.13828 17.1027C7.88731 16.8867 6.72215 16.3236 5.77556 15.4776C4.81901 14.641 4.1162 13.5529 3.74695 12.3368C3.65176 12.0244 3.79818 11.7659 4.05974 11.7696C4.29864 11.7877 4.3952 11.9437 4.45368 12.1382C4.59015 12.5953 4.78487 13.033 5.03302 13.4404Z" />
                <path d="M5.96894 19.3802C5.79158 19.3694 5.61376 19.3683 5.43629 19.377C5.29802 19.3843 5.26267 19.3317 5.26357 19.1993C5.26357 19.1456 5.26514 19.0919 5.26671 19.0383C5.27111 18.8879 5.27551 18.7373 5.24544 18.5863C5.20691 18.3954 5.07681 18.3188 4.91588 18.2893C4.82445 18.2861 4.73519 18.3176 4.666 18.3775C4.59681 18.4373 4.55281 18.5212 4.5428 18.6121C4.52792 18.796 4.52504 18.9806 4.53418 19.1648C4.54144 19.3176 4.50608 19.3952 4.33336 19.3775C4.19013 19.3683 4.04648 19.3676 3.90316 19.3752C3.61938 19.3811 3.44984 19.5158 3.44259 19.7339C3.43534 19.952 3.61802 20.1034 3.90951 20.1102C4.06681 20.1138 4.22411 20.1161 4.38096 20.1102C4.49837 20.1057 4.53781 20.1524 4.53282 20.2666C4.52602 20.4303 4.52829 20.5949 4.53282 20.7586C4.53917 21.0279 4.67698 21.1907 4.89548 21.1925C5.11398 21.1943 5.25541 21.0284 5.2672 20.7636C5.27491 20.5931 5.274 20.4217 5.2672 20.2512C5.26312 20.1429 5.30709 20.1084 5.4109 20.1107C5.60207 20.118 5.79349 20.1151 5.98435 20.102C6.21509 20.0816 6.34927 19.9338 6.34701 19.7348C6.34474 19.5357 6.19786 19.3943 5.96894 19.3802Z" />
                <path d="M20.3769 7.01883C20.2889 7.05662 20.1943 7.07667 20.0984 7.07785C19.9046 7.07534 19.7196 6.99621 19.5839 6.85774C19.4481 6.71926 19.3727 6.5327 19.374 6.33879C19.375 6.14911 19.4499 5.96727 19.5826 5.83184C19.7154 5.69641 19.8957 5.61804 20.0853 5.61332C20.1812 5.6123 20.2763 5.63032 20.3652 5.66632C20.4541 5.70233 20.535 5.7556 20.6032 5.82307C20.6713 5.89054 20.7254 5.97084 20.7624 6.05937C20.7993 6.14789 20.8183 6.24287 20.8183 6.33879C20.8196 6.43461 20.8021 6.52977 20.7666 6.61879C20.7311 6.70781 20.6784 6.78894 20.6116 6.85758C20.5447 6.92623 20.465 6.98103 20.3769 7.01883Z" />
              </mask>
              <path
                d="M16.4665 15.9258C15.1759 17.3726 13.5457 18.2405 11.6372 18.5515C10.0177 18.8248 8.35326 18.5961 6.86743 17.8959C5.20329 17.1251 3.92312 15.9331 3.0328 14.3334C2.47753 13.3506 2.13946 12.2601 2.04139 11.1355C2.04044 11.1241 2.04015 11.1127 2.03986 11.1013C2.03878 11.0588 2.0377 11.0166 2.00195 10.9808V9.66864C2.04445 9.5383 2.05596 9.40336 2.06747 9.26846C2.07438 9.18749 2.08128 9.10654 2.09489 9.02661C2.33469 7.63009 2.86915 6.36143 3.74315 5.2433C5.01637 3.61584 6.66343 2.58914 8.68433 2.16323C8.90834 2.11598 9.13494 2.08169 9.3616 2.04738C9.46335 2.03198 9.56512 2.01658 9.66667 2H11.0176C11.1139 2.01653 11.2104 2.03261 11.307 2.0487C11.5309 2.08599 11.7551 2.12332 11.9768 2.1664C13.1522 2.39311 14.2194 2.87736 15.1922 3.57199C15.4034 3.72117 15.4497 3.92024 15.3282 4.10115C15.2067 4.28206 14.9855 4.31652 14.7688 4.16553C14.1794 3.74547 13.5349 3.40872 12.8535 3.16483C11.652 2.73727 10.3611 2.62442 9.10365 2.83701C7.24413 3.14397 5.70693 4.02995 4.49657 5.46682C3.59497 6.5294 3.01335 7.82608 2.81929 9.20616C2.61829 10.5224 2.77196 11.8685 3.26445 13.1055C3.75455 14.3589 4.57208 15.4577 5.63168 16.2872C6.52603 16.9997 7.57219 17.4971 8.68932 17.7408C9.63823 17.9536 10.6197 17.9775 11.5779 17.8111C13.4144 17.4901 14.9327 16.621 16.1328 15.204C17.0472 14.1341 17.636 12.8247 17.8296 11.4306C18.0739 9.74664 17.7788 8.15967 16.9737 6.6634C16.7475 6.25791 16.4883 5.8718 16.1985 5.509C16.0884 5.36844 16.0635 5.21337 16.1713 5.05558C16.2629 4.92137 16.3935 4.88509 16.5476 4.91048C16.6655 4.92952 16.7357 5.01252 16.8046 5.09867C17.6469 6.15785 18.2258 7.34398 18.4778 8.67521C18.9969 11.4188 18.3223 13.8451 16.4665 15.9258Z"
                fill="white"
              />
              <path
                d="M21.0409 3.80778C20.8564 3.81367 20.6719 3.81277 20.4874 3.80778C20.2607 3.80143 20.1116 3.67175 20.0953 3.4727C20.0772 3.28816 20.2213 3.11132 20.4398 3.08729C20.637 3.07073 20.8351 3.06711 21.0328 3.07642C21.1474 3.0796 21.1946 3.04785 21.186 2.92543C21.1819 2.86702 21.1833 2.80819 21.1848 2.7494C21.1864 2.68513 21.188 2.62042 21.1823 2.55681C21.1619 2.33373 21.2127 2.14328 21.394 2H21.6801C21.9104 2.15235 21.9244 2.3827 21.9203 2.62936C21.9122 3.07505 21.9181 3.07505 22.3655 3.07505C22.3885 3.07514 22.4117 3.07479 22.4348 3.07444C22.5342 3.07293 22.6334 3.07143 22.7309 3.10454C22.9099 3.1653 23.0178 3.31309 22.9875 3.49446C22.9571 3.67583 22.8483 3.79237 22.6597 3.8028C22.4688 3.81443 22.2773 3.81565 22.0863 3.80643C21.9475 3.79917 21.9077 3.85085 21.9158 3.98279C21.9242 4.14652 21.9242 4.31058 21.9158 4.47431C21.904 4.7314 21.7454 4.90596 21.5382 4.90142C21.3242 4.89734 21.1873 4.72867 21.1833 4.46116C21.1796 4.29022 21.1765 4.11927 21.1833 3.94878C21.1873 3.84087 21.1465 3.80415 21.0409 3.80778Z"
                fill="white"
              />
              <path
                d="M2.6722 21.5522C2.31907 21.5735 2.13049 21.7975 1.99902 22.0935V22.4626L2.08515 22.6186C2.1688 22.7732 2.30573 22.8922 2.47049 22.9534C2.63525 23.0146 2.81663 23.0139 2.98091 22.9514C3.14452 22.8875 3.27981 22.767 3.36223 22.6119C3.44466 22.4567 3.46875 22.2772 3.43015 22.1058C3.3626 21.7684 3.03486 21.5304 2.6722 21.5522Z"
                fill="white"
              />
              <path
                d="M20.6092 9.87003C21.8807 11.0829 22.6636 12.5547 22.9139 14.3022C22.9688 14.6617 22.9976 15.0248 23 15.3886C22.8894 18.3471 21.5902 20.6115 19.0026 22.0792C17.664 22.8382 16.1979 23.1139 14.6607 22.9606C12.4562 22.7412 10.6915 21.7301 9.33831 19.9858C9.18781 19.7931 9.18237 19.6294 9.30522 19.487C9.42807 19.3446 9.57631 19.3111 9.74539 19.39C9.83558 19.4299 9.89521 19.5085 9.95365 19.5855L9.97749 19.6167C10.4856 20.2803 11.1133 20.8428 11.8284 21.2753C13.231 22.1173 14.7441 22.427 16.3643 22.1898C18.3498 21.8987 19.9151 20.9112 21.0534 19.2744C21.9986 17.9155 22.3826 16.3888 22.2225 14.7366C22.0322 12.7701 21.1319 11.1908 19.5906 9.96889C19.5472 9.93564 19.5058 9.89975 19.4668 9.86142C19.3168 9.70681 19.2955 9.51773 19.4215 9.36266C19.5475 9.20759 19.737 9.1754 19.9156 9.29601C20.1626 9.4674 20.3946 9.65942 20.6092 9.87003Z"
                fill="white"
              />
              <path
                d="M10.8195 13.7629C11.2166 13.7218 11.5887 13.5494 11.8771 13.2732C12.4006 12.7785 12.6024 12.1687 12.4482 11.4695C12.2991 10.7894 11.8784 10.3219 11.2206 10.0757C10.9089 9.95914 10.586 9.95774 10.2628 9.95635C10.1911 9.95604 10.1194 9.95573 10.0479 9.95417C9.42958 9.94056 8.91779 9.45042 8.88696 8.851C8.86551 8.54819 8.96287 8.24893 9.15837 8.01673C9.35388 7.78453 9.63214 7.63766 9.93413 7.60728C10.2191 7.57362 10.5051 7.57829 10.791 7.58296C10.9557 7.58565 11.1205 7.58834 11.285 7.5837C11.5634 7.57554 11.7139 7.45175 11.717 7.22777C11.7202 7.00378 11.5679 6.86503 11.2982 6.85007C11.1413 6.84236 10.9836 6.84281 10.8272 6.85007C10.7179 6.85505 10.6844 6.81334 10.6912 6.70815C10.698 6.54447 10.6971 6.37987 10.6912 6.21619C10.6835 5.98449 10.5325 5.82353 10.3285 5.82036C10.1245 5.81718 9.97039 5.97771 9.95906 6.20895C9.95135 6.37218 9.95135 6.53676 9.95906 6.70045C9.96495 6.82106 9.94002 6.87456 9.79949 6.89133C9.38108 6.94166 9.02477 7.13164 8.71787 7.42138C7.71422 8.36902 8.12448 10.151 9.4382 10.5776C9.75393 10.6803 10.0728 10.6847 10.3935 10.6892C10.4595 10.6901 10.5257 10.691 10.5919 10.6928C11.2179 10.7096 11.7329 11.1961 11.7601 11.7882C11.7905 12.443 11.3684 12.9503 10.7252 13.0428C10.5424 13.0698 10.3597 13.0673 10.177 13.0647C10.0529 13.0629 9.92889 13.0612 9.80493 13.0687C9.71833 13.0687 9.63173 13.068 9.54515 13.0674C9.37211 13.0661 9.19889 13.0648 9.02613 13.0687C8.93634 13.0662 8.84926 13.0995 8.78399 13.1612C8.71871 13.223 8.68059 13.3081 8.67798 13.3979C8.66257 13.6314 8.81806 13.7874 9.09277 13.7969C9.33121 13.805 9.57102 13.8041 9.80947 13.7969C9.92688 13.7928 9.96541 13.8327 9.95951 13.9483C9.95135 14.112 9.95181 14.2766 9.95951 14.4403C9.9713 14.6706 10.1295 14.8302 10.3308 14.8261C10.5321 14.822 10.683 14.662 10.6907 14.4294C10.6962 14.2589 10.6953 14.088 10.6907 13.9175C10.6871 13.8241 10.7066 13.7756 10.8195 13.7629Z"
                fill="white"
              />
              <path
                d="M16.4745 10.2966C16.4464 9.52802 16.3254 8.77943 16.0335 8.06212C15.4547 6.64867 14.4919 5.58374 13.1449 4.86734C12.2854 4.41165 11.3611 4.20989 10.3946 4.17362C10.1167 4.16319 9.9481 4.01311 9.9617 3.79003C9.9753 3.56695 10.1562 3.43318 10.4318 3.4418C12.2627 3.50074 13.8516 4.14958 15.1572 5.43683C16.2488 6.51279 16.9097 7.82091 17.1323 9.34484C17.1491 9.46061 17.1589 9.57713 17.1686 9.69362C17.1759 9.78105 17.1832 9.86851 17.1935 9.95559C17.195 9.98956 17.197 10.0235 17.1989 10.0575C17.2032 10.1327 17.2076 10.208 17.2076 10.283C17.2035 10.5273 17.0484 10.6942 16.8372 10.691C16.6318 10.6879 16.4836 10.5323 16.4745 10.2966Z"
                fill="white"
              />
              <path
                d="M15.4069 20.8262C15.1802 20.8344 15.0384 20.9759 15.0343 21.1785C15.0297 21.3885 15.1793 21.544 15.4083 21.5553C15.5174 21.5558 15.6265 21.5507 15.7351 21.5399C16.2668 21.5171 16.7925 21.4184 17.2963 21.247C19.014 20.6621 20.2533 19.5399 21.0136 17.894C21.3708 17.1232 21.5244 16.3016 21.5489 15.4555C21.5562 15.2084 21.4088 15.0474 21.1949 15.0393C20.9728 15.0329 20.8381 15.1753 20.8173 15.4297C20.8113 15.502 20.8064 15.5744 20.8016 15.6468C20.7886 15.8394 20.7755 16.0328 20.7429 16.224C20.4397 18.0205 19.4736 19.3408 17.882 20.2082C17.1141 20.6276 16.2764 20.7963 15.4069 20.8262Z"
                fill="white"
              />
              <path
                d="M5.03302 13.4404C5.98816 15.0002 7.35447 15.9809 9.14961 16.355L9.16877 16.359C9.33724 16.3947 9.50807 16.4308 9.57663 16.6247C9.67727 16.9063 9.44563 17.1571 9.13828 17.1027C7.88731 16.8867 6.72215 16.3236 5.77556 15.4776C4.81901 14.641 4.1162 13.5529 3.74695 12.3368C3.65176 12.0244 3.79818 11.7659 4.05974 11.7696C4.29864 11.7877 4.3952 11.9437 4.45368 12.1382C4.59015 12.5953 4.78487 13.033 5.03302 13.4404Z"
                fill="white"
              />
              <path
                d="M5.96894 19.3802C5.79158 19.3694 5.61376 19.3683 5.43629 19.377C5.29802 19.3843 5.26267 19.3317 5.26357 19.1993C5.26357 19.1456 5.26514 19.0919 5.26671 19.0383C5.27111 18.8879 5.27551 18.7373 5.24544 18.5863C5.20691 18.3954 5.07681 18.3188 4.91588 18.2893C4.82445 18.2861 4.73519 18.3176 4.666 18.3775C4.59681 18.4373 4.55281 18.5212 4.5428 18.6121C4.52792 18.796 4.52504 18.9806 4.53418 19.1648C4.54144 19.3176 4.50608 19.3952 4.33336 19.3775C4.19013 19.3683 4.04648 19.3676 3.90316 19.3752C3.61938 19.3811 3.44984 19.5158 3.44259 19.7339C3.43534 19.952 3.61802 20.1034 3.90951 20.1102C4.06681 20.1138 4.22411 20.1161 4.38096 20.1102C4.49837 20.1057 4.53781 20.1524 4.53282 20.2666C4.52602 20.4303 4.52829 20.5949 4.53282 20.7586C4.53917 21.0279 4.67698 21.1907 4.89548 21.1925C5.11398 21.1943 5.25541 21.0284 5.2672 20.7636C5.27491 20.5931 5.274 20.4217 5.2672 20.2512C5.26312 20.1429 5.30709 20.1084 5.4109 20.1107C5.60207 20.118 5.79349 20.1151 5.98435 20.102C6.21509 20.0816 6.34927 19.9338 6.34701 19.7348C6.34474 19.5357 6.19786 19.3943 5.96894 19.3802Z"
                fill="white"
              />
              <path
                d="M20.3769 7.01883C20.2889 7.05662 20.1943 7.07667 20.0984 7.07785C19.9046 7.07534 19.7196 6.99621 19.5839 6.85774C19.4481 6.71926 19.3727 6.5327 19.374 6.33879C19.375 6.14911 19.4499 5.96727 19.5826 5.83184C19.7154 5.69641 19.8957 5.61804 20.0853 5.61332C20.1812 5.6123 20.2763 5.63032 20.3652 5.66632C20.4541 5.70233 20.535 5.7556 20.6032 5.82307C20.6713 5.89054 20.7254 5.97084 20.7624 6.05937C20.7993 6.14789 20.8183 6.24287 20.8183 6.33879C20.8196 6.43461 20.8021 6.52977 20.7666 6.61879C20.7311 6.70781 20.6784 6.78894 20.6116 6.85758C20.5447 6.92623 20.465 6.98103 20.3769 7.01883Z"
                fill="white"
              />
              <path
                d="M16.4665 15.9258C15.1759 17.3726 13.5457 18.2405 11.6372 18.5515C10.0177 18.8248 8.35326 18.5961 6.86743 17.8959C5.20329 17.1251 3.92312 15.9331 3.0328 14.3334C2.47753 13.3506 2.13946 12.2601 2.04139 11.1355C2.04044 11.1241 2.04015 11.1127 2.03986 11.1013C2.03878 11.0588 2.0377 11.0166 2.00195 10.9808V9.66864C2.04445 9.5383 2.05596 9.40336 2.06747 9.26846C2.07438 9.18749 2.08128 9.10654 2.09489 9.02661C2.33469 7.63009 2.86915 6.36143 3.74315 5.2433C5.01637 3.61584 6.66343 2.58914 8.68433 2.16323C8.90834 2.11598 9.13494 2.08169 9.3616 2.04738C9.46335 2.03198 9.56512 2.01658 9.66667 2H11.0176C11.1139 2.01653 11.2104 2.03261 11.307 2.0487C11.5309 2.08599 11.7551 2.12332 11.9768 2.1664C13.1522 2.39311 14.2194 2.87736 15.1922 3.57199C15.4034 3.72117 15.4497 3.92024 15.3282 4.10115C15.2067 4.28206 14.9855 4.31652 14.7688 4.16553C14.1794 3.74547 13.5349 3.40872 12.8535 3.16483C11.652 2.73727 10.3611 2.62442 9.10365 2.83701C7.24413 3.14397 5.70693 4.02995 4.49657 5.46682C3.59497 6.5294 3.01335 7.82608 2.81929 9.20616C2.61829 10.5224 2.77196 11.8685 3.26445 13.1055C3.75455 14.3589 4.57208 15.4577 5.63168 16.2872C6.52603 16.9997 7.57219 17.4971 8.68932 17.7408C9.63823 17.9536 10.6197 17.9775 11.5779 17.8111C13.4144 17.4901 14.9327 16.621 16.1328 15.204C17.0472 14.1341 17.636 12.8247 17.8296 11.4306C18.0739 9.74664 17.7788 8.15967 16.9737 6.6634C16.7475 6.25791 16.4883 5.8718 16.1985 5.509C16.0884 5.36844 16.0635 5.21337 16.1713 5.05558C16.2629 4.92137 16.3935 4.88509 16.5476 4.91048C16.6655 4.92952 16.7357 5.01252 16.8046 5.09867C17.6469 6.15785 18.2258 7.34398 18.4778 8.67521C18.9969 11.4188 18.3223 13.8451 16.4665 15.9258Z"
                stroke="white"
                stroke-width="0.2"
                mask="url(#path-1-outside-1_3080_20621)"
              />
              <path
                d="M21.0409 3.80778C20.8564 3.81367 20.6719 3.81277 20.4874 3.80778C20.2607 3.80143 20.1116 3.67175 20.0953 3.4727C20.0772 3.28816 20.2213 3.11132 20.4398 3.08729C20.637 3.07073 20.8351 3.06711 21.0328 3.07642C21.1474 3.0796 21.1946 3.04785 21.186 2.92543C21.1819 2.86702 21.1833 2.80819 21.1848 2.7494C21.1864 2.68513 21.188 2.62042 21.1823 2.55681C21.1619 2.33373 21.2127 2.14328 21.394 2H21.6801C21.9104 2.15235 21.9244 2.3827 21.9203 2.62936C21.9122 3.07505 21.9181 3.07505 22.3655 3.07505C22.3885 3.07514 22.4117 3.07479 22.4348 3.07444C22.5342 3.07293 22.6334 3.07143 22.7309 3.10454C22.9099 3.1653 23.0178 3.31309 22.9875 3.49446C22.9571 3.67583 22.8483 3.79237 22.6597 3.8028C22.4688 3.81443 22.2773 3.81565 22.0863 3.80643C21.9475 3.79917 21.9077 3.85085 21.9158 3.98279C21.9242 4.14652 21.9242 4.31058 21.9158 4.47431C21.904 4.7314 21.7454 4.90596 21.5382 4.90142C21.3242 4.89734 21.1873 4.72867 21.1833 4.46116C21.1796 4.29022 21.1765 4.11927 21.1833 3.94878C21.1873 3.84087 21.1465 3.80415 21.0409 3.80778Z"
                stroke="white"
                stroke-width="0.2"
                mask="url(#path-1-outside-1_3080_20621)"
              />
              <path
                d="M2.6722 21.5522C2.31907 21.5735 2.13049 21.7975 1.99902 22.0935V22.4626L2.08515 22.6186C2.1688 22.7732 2.30573 22.8922 2.47049 22.9534C2.63525 23.0146 2.81663 23.0139 2.98091 22.9514C3.14452 22.8875 3.27981 22.767 3.36223 22.6119C3.44466 22.4567 3.46875 22.2772 3.43015 22.1058C3.3626 21.7684 3.03486 21.5304 2.6722 21.5522Z"
                stroke="white"
                stroke-width="0.2"
                mask="url(#path-1-outside-1_3080_20621)"
              />
              <path
                d="M20.6092 9.87003C21.8807 11.0829 22.6636 12.5547 22.9139 14.3022C22.9688 14.6617 22.9976 15.0248 23 15.3886C22.8894 18.3471 21.5902 20.6115 19.0026 22.0792C17.664 22.8382 16.1979 23.1139 14.6607 22.9606C12.4562 22.7412 10.6915 21.7301 9.33831 19.9858C9.18781 19.7931 9.18237 19.6294 9.30522 19.487C9.42807 19.3446 9.57631 19.3111 9.74539 19.39C9.83558 19.4299 9.89521 19.5085 9.95365 19.5855L9.97749 19.6167C10.4856 20.2803 11.1133 20.8428 11.8284 21.2753C13.231 22.1173 14.7441 22.427 16.3643 22.1898C18.3498 21.8987 19.9151 20.9112 21.0534 19.2744C21.9986 17.9155 22.3826 16.3888 22.2225 14.7366C22.0322 12.7701 21.1319 11.1908 19.5906 9.96889C19.5472 9.93564 19.5058 9.89975 19.4668 9.86142C19.3168 9.70681 19.2955 9.51773 19.4215 9.36266C19.5475 9.20759 19.737 9.1754 19.9156 9.29601C20.1626 9.4674 20.3946 9.65942 20.6092 9.87003Z"
                stroke="white"
                stroke-width="0.2"
                mask="url(#path-1-outside-1_3080_20621)"
              />
              <path
                d="M10.8195 13.7629C11.2166 13.7218 11.5887 13.5494 11.8771 13.2732C12.4006 12.7785 12.6024 12.1687 12.4482 11.4695C12.2991 10.7894 11.8784 10.3219 11.2206 10.0757C10.9089 9.95914 10.586 9.95774 10.2628 9.95635C10.1911 9.95604 10.1194 9.95573 10.0479 9.95417C9.42958 9.94056 8.91779 9.45042 8.88696 8.851C8.86551 8.54819 8.96287 8.24893 9.15837 8.01673C9.35388 7.78453 9.63214 7.63766 9.93413 7.60728C10.2191 7.57362 10.5051 7.57829 10.791 7.58296C10.9557 7.58565 11.1205 7.58834 11.285 7.5837C11.5634 7.57554 11.7139 7.45175 11.717 7.22777C11.7202 7.00378 11.5679 6.86503 11.2982 6.85007C11.1413 6.84236 10.9836 6.84281 10.8272 6.85007C10.7179 6.85505 10.6844 6.81334 10.6912 6.70815C10.698 6.54447 10.6971 6.37987 10.6912 6.21619C10.6835 5.98449 10.5325 5.82353 10.3285 5.82036C10.1245 5.81718 9.97039 5.97771 9.95906 6.20895C9.95135 6.37218 9.95135 6.53676 9.95906 6.70045C9.96495 6.82106 9.94002 6.87456 9.79949 6.89133C9.38108 6.94166 9.02477 7.13164 8.71787 7.42138C7.71422 8.36902 8.12448 10.151 9.4382 10.5776C9.75393 10.6803 10.0728 10.6847 10.3935 10.6892C10.4595 10.6901 10.5257 10.691 10.5919 10.6928C11.2179 10.7096 11.7329 11.1961 11.7601 11.7882C11.7905 12.443 11.3684 12.9503 10.7252 13.0428C10.5424 13.0698 10.3597 13.0673 10.177 13.0647C10.0529 13.0629 9.92889 13.0612 9.80493 13.0687C9.71833 13.0687 9.63173 13.068 9.54515 13.0674C9.37211 13.0661 9.19889 13.0648 9.02613 13.0687C8.93634 13.0662 8.84926 13.0995 8.78399 13.1612C8.71871 13.223 8.68059 13.3081 8.67798 13.3979C8.66257 13.6314 8.81806 13.7874 9.09277 13.7969C9.33121 13.805 9.57102 13.8041 9.80947 13.7969C9.92688 13.7928 9.96541 13.8327 9.95951 13.9483C9.95135 14.112 9.95181 14.2766 9.95951 14.4403C9.9713 14.6706 10.1295 14.8302 10.3308 14.8261C10.5321 14.822 10.683 14.662 10.6907 14.4294C10.6962 14.2589 10.6953 14.088 10.6907 13.9175C10.6871 13.8241 10.7066 13.7756 10.8195 13.7629Z"
                stroke="white"
                stroke-width="0.2"
                mask="url(#path-1-outside-1_3080_20621)"
              />
              <path
                d="M16.4745 10.2966C16.4464 9.52802 16.3254 8.77943 16.0335 8.06212C15.4547 6.64867 14.4919 5.58374 13.1449 4.86734C12.2854 4.41165 11.3611 4.20989 10.3946 4.17362C10.1167 4.16319 9.9481 4.01311 9.9617 3.79003C9.9753 3.56695 10.1562 3.43318 10.4318 3.4418C12.2627 3.50074 13.8516 4.14958 15.1572 5.43683C16.2488 6.51279 16.9097 7.82091 17.1323 9.34484C17.1491 9.46061 17.1589 9.57713 17.1686 9.69362C17.1759 9.78105 17.1832 9.86851 17.1935 9.95559C17.195 9.98956 17.197 10.0235 17.1989 10.0575C17.2032 10.1327 17.2076 10.208 17.2076 10.283C17.2035 10.5273 17.0484 10.6942 16.8372 10.691C16.6318 10.6879 16.4836 10.5323 16.4745 10.2966Z"
                stroke="white"
                stroke-width="0.2"
                mask="url(#path-1-outside-1_3080_20621)"
              />
              <path
                d="M15.4069 20.8262C15.1802 20.8344 15.0384 20.9759 15.0343 21.1785C15.0297 21.3885 15.1793 21.544 15.4083 21.5553C15.5174 21.5558 15.6265 21.5507 15.7351 21.5399C16.2668 21.5171 16.7925 21.4184 17.2963 21.247C19.014 20.6621 20.2533 19.5399 21.0136 17.894C21.3708 17.1232 21.5244 16.3016 21.5489 15.4555C21.5562 15.2084 21.4088 15.0474 21.1949 15.0393C20.9728 15.0329 20.8381 15.1753 20.8173 15.4297C20.8113 15.502 20.8064 15.5744 20.8016 15.6468C20.7886 15.8394 20.7755 16.0328 20.7429 16.224C20.4397 18.0205 19.4736 19.3408 17.882 20.2082C17.1141 20.6276 16.2764 20.7963 15.4069 20.8262Z"
                stroke="white"
                stroke-width="0.2"
                mask="url(#path-1-outside-1_3080_20621)"
              />
              <path
                d="M5.03302 13.4404C5.98816 15.0002 7.35447 15.9809 9.14961 16.355L9.16877 16.359C9.33724 16.3947 9.50807 16.4308 9.57663 16.6247C9.67727 16.9063 9.44563 17.1571 9.13828 17.1027C7.88731 16.8867 6.72215 16.3236 5.77556 15.4776C4.81901 14.641 4.1162 13.5529 3.74695 12.3368C3.65176 12.0244 3.79818 11.7659 4.05974 11.7696C4.29864 11.7877 4.3952 11.9437 4.45368 12.1382C4.59015 12.5953 4.78487 13.033 5.03302 13.4404Z"
                stroke="white"
                stroke-width="0.2"
                mask="url(#path-1-outside-1_3080_20621)"
              />
              <path
                d="M5.96894 19.3802C5.79158 19.3694 5.61376 19.3683 5.43629 19.377C5.29802 19.3843 5.26267 19.3317 5.26357 19.1993C5.26357 19.1456 5.26514 19.0919 5.26671 19.0383C5.27111 18.8879 5.27551 18.7373 5.24544 18.5863C5.20691 18.3954 5.07681 18.3188 4.91588 18.2893C4.82445 18.2861 4.73519 18.3176 4.666 18.3775C4.59681 18.4373 4.55281 18.5212 4.5428 18.6121C4.52792 18.796 4.52504 18.9806 4.53418 19.1648C4.54144 19.3176 4.50608 19.3952 4.33336 19.3775C4.19013 19.3683 4.04648 19.3676 3.90316 19.3752C3.61938 19.3811 3.44984 19.5158 3.44259 19.7339C3.43534 19.952 3.61802 20.1034 3.90951 20.1102C4.06681 20.1138 4.22411 20.1161 4.38096 20.1102C4.49837 20.1057 4.53781 20.1524 4.53282 20.2666C4.52602 20.4303 4.52829 20.5949 4.53282 20.7586C4.53917 21.0279 4.67698 21.1907 4.89548 21.1925C5.11398 21.1943 5.25541 21.0284 5.2672 20.7636C5.27491 20.5931 5.274 20.4217 5.2672 20.2512C5.26312 20.1429 5.30709 20.1084 5.4109 20.1107C5.60207 20.118 5.79349 20.1151 5.98435 20.102C6.21509 20.0816 6.34927 19.9338 6.34701 19.7348C6.34474 19.5357 6.19786 19.3943 5.96894 19.3802Z"
                stroke="white"
                stroke-width="0.2"
                mask="url(#path-1-outside-1_3080_20621)"
              />
              <path
                d="M20.3769 7.01883C20.2889 7.05662 20.1943 7.07667 20.0984 7.07785C19.9046 7.07534 19.7196 6.99621 19.5839 6.85774C19.4481 6.71926 19.3727 6.5327 19.374 6.33879C19.375 6.14911 19.4499 5.96727 19.5826 5.83184C19.7154 5.69641 19.8957 5.61804 20.0853 5.61332C20.1812 5.6123 20.2763 5.63032 20.3652 5.66632C20.4541 5.70233 20.535 5.7556 20.6032 5.82307C20.6713 5.89054 20.7254 5.97084 20.7624 6.05937C20.7993 6.14789 20.8183 6.24287 20.8183 6.33879C20.8196 6.43461 20.8021 6.52977 20.7666 6.61879C20.7311 6.70781 20.6784 6.78894 20.6116 6.85758C20.5447 6.92623 20.465 6.98103 20.3769 7.01883Z"
                stroke="white"
                stroke-width="0.2"
                mask="url(#path-1-outside-1_3080_20621)"
              />
            </svg>