<svg width="24" height="25" viewBox="0 0 24 25" fill="none" xmlns="http://www.w3.org/2000/svg">
<path d="M4.85387 8.20819C4.93772 8.2923 5.01598 8.38136 5.08828 8.47478C5.28514 8.72914 5.43782 9.01581 5.53899 9.32287L5.98677 10.6996C6.02423 10.8057 6.09372 10.8976 6.18564 10.9626C6.27756 11.0276 6.38739 11.0625 6.5 11.0625C6.61261 11.0625 6.72244 11.0276 6.81436 10.9626C6.89637 10.9046 6.96052 10.8252 7 10.7334C7.00477 10.7223 7.00919 10.7111 7.01323 10.6996L7.46101 9.32287C7.60025 8.90431 7.83528 8.52397 8.1474 8.21209C8.45953 7.9002 8.84016 7.66535 9.25903 7.52622L10.6368 7.07878C10.743 7.04134 10.835 6.97192 10.9 6.88006C10.9651 6.78821 11 6.67846 11 6.56594C11 6.45342 10.9651 6.34367 10.9 6.25182C10.835 6.15997 10.743 6.09054 10.6368 6.05311L10.6093 6.04622L9.23148 5.59878C8.8126 5.45965 8.43198 5.2248 8.11985 4.91291C7.80772 4.60103 7.5727 4.22069 7.43346 3.80213L6.98567 2.42539C6.94821 2.31928 6.87873 2.2274 6.78681 2.1624C6.69489 2.0974 6.58505 2.0625 6.47244 2.0625C6.35984 2.0625 6.25 2.0974 6.15808 2.1624C6.06616 2.2274 5.99668 2.31928 5.95922 2.42539L5.51143 3.80213L5.5 3.83622C5.36226 4.23845 5.13572 4.60474 4.837 4.90787C4.52987 5.21955 4.15474 5.45602 3.74097 5.59878L2.36317 6.04622C2.25698 6.08366 2.16502 6.15308 2.09998 6.24494C2.03493 6.33679 2 6.44654 2 6.55906C2 6.67158 2.03493 6.78133 2.09998 6.87318C2.16502 6.96503 2.25698 7.03446 2.36317 7.07189L3.74097 7.51933C4.16058 7.65916 4.54169 7.89505 4.85387 8.20819ZM20.25 7.06251C20.6642 7.06251 21 7.3983 21 7.81251V12.8125C21 13.2267 20.6642 13.5625 20.25 13.5625C19.8358 13.5625 19.5 13.2267 19.5 12.8125V9.62316L13.5303 15.5928C13.2374 15.8857 12.7626 15.8857 12.4697 15.5928L10.25 13.3732L4.28033 19.3428C3.98744 19.6357 3.51256 19.6357 3.21967 19.3428C2.92678 19.0499 2.92678 18.5751 3.21967 18.2822L9.71967 11.7822C10.0126 11.4893 10.4874 11.4893 10.7803 11.7822L13 14.0018L18.4394 8.56251L15.25 8.5625C14.8358 8.5625 14.5 8.22671 14.5 7.8125C14.5 7.39828 14.8358 7.0625 15.25 7.0625L20.25 7.06251ZM20.0175 18.0271L20.7829 18.2757L20.7982 18.2795C20.8572 18.3003 20.9083 18.3389 20.9445 18.3899C20.9806 18.4409 21 18.5019 21 18.5644C21 18.6269 20.9806 18.6879 20.9445 18.7389C20.9083 18.79 20.8572 18.8285 20.7982 18.8493L20.0328 19.0979C19.8001 19.1752 19.5886 19.3057 19.4152 19.4789C19.2418 19.6522 19.1113 19.8635 19.0339 20.096L18.7851 20.8609C18.7643 20.9198 18.7257 20.9709 18.6746 21.007C18.6236 21.0431 18.5626 21.0625 18.5 21.0625C18.4374 21.0625 18.3764 21.0431 18.3254 21.007C18.2743 20.9709 18.2357 20.9198 18.2149 20.8609L17.9661 20.096C17.8893 19.8628 17.7589 19.6507 17.5855 19.4768C17.412 19.3028 17.2003 19.1718 16.9672 19.0941L16.2018 18.8455C16.1428 18.8247 16.0917 18.7861 16.0555 18.7351C16.0194 18.6841 16 18.6231 16 18.5606C16 18.4981 16.0194 18.4371 16.0555 18.3861C16.0917 18.335 16.1428 18.2965 16.2018 18.2757L16.9672 18.0271C17.1971 17.9478 17.4055 17.8164 17.5761 17.6433C17.7467 17.4701 17.875 17.2599 17.9508 17.029L18.1996 16.2641C18.2204 16.2052 18.259 16.1541 18.31 16.118C18.3611 16.0819 18.4221 16.0625 18.4847 16.0625C18.5473 16.0625 18.6083 16.0819 18.6593 16.118C18.7104 16.1541 18.749 16.2052 18.7698 16.2641L19.0186 17.029C19.0959 17.2615 19.2265 17.4728 19.3999 17.6461C19.5733 17.8193 19.7848 17.9498 20.0175 18.0271Z" fill="#5A5A5A"/>
</svg>
